<?xml version="1.0" encoding="utf-8"?>
<!-- Generator: Adobe Illustrator 25.4.1, SVG Export Plug-In . SVG Version: 6.00 Build 0)  -->
<svg version="1.1" id="Capa_1" xmlns="http://www.w3.org/2000/svg" xmlns:xlink="http://www.w3.org/1999/xlink" x="0px" y="0px"
	 viewBox="0 0 1440 724" style="enable-background:new 0 0 1440 724;" xml:space="preserve">
<style type="text/css">
	.st0{opacity:0.12;}
	.st1{fill:#795DF4;}
</style>
<g class="st0">
	<path class="st1" d="M724.4,570L724.4,570c-2.3,0.2-4.6,0.5-6.8,1.1l0,0c-16.2,1.7-31.6-3.7-43.1-13.9c-9.5-8.3-16.2-20-18.3-33.5
		c0,0,0,0,0-0.1c0,0,0,0,0-0.1c-5-29.9,14.8-58.6,44.7-64.5c1.2-0.1,2.4-0.3,3.5-0.5c37-9.3,29.6-62.4-8.4-61.5l0,0
		c-2.2,0.1-4.6,0.5-6.8,1.1l0,0c-16.2,1.7-31.6-3.7-43.1-13.9c-9.5-8.3-16.2-20-18.3-33.5c-2.8-16.9-18.8-28.4-35.8-25.7
		c-16.9,2.8-28.4,18.8-25.7,35.7c2.8,16.9,18.8,28.4,35.7,25.7c13.4-2.3,26.6,0.4,37.6,6.7c30.7,17.1,37.7,60.5,13.9,86.3
		c-31.3,35.1-89.8,18.4-97.6-28.4c-8.4-40.4-66.6-30.8-61.4,10.2c2.7,16.4,17.7,27.7,34,25.9c13.5-2.6,27.4-0.2,38.7,6.4
		c14.5,8.4,24.8,22.5,27.6,39.8c0,0,0,0,0,0.1c0,0,0,0,0,0.1c2.8,16.9,18.8,28.4,35.7,25.7c13.4-2.3,26.6,0.4,37.6,6.7
		c30.7,17.1,37.7,60.5,13.9,86.3c-31.3,35.1-89.8,18.4-97.6-28.4c-8.4-40.4-66.6-30.8-61.4,10.2c2.7,16.4,17.7,27.7,34,25.9
		c13.5-2.6,27.4-0.2,38.7,6.4c14.5,8.4,24.8,22.5,27.6,39.8c2.8,16.9,18.8,28.4,35.7,25.7c16.9-2.8,28.4-18.8,25.7-35.8
		c-5-29.9,14.8-58.6,44.7-64.5c1.2-0.1,2.4-0.3,3.5-0.5C769.7,622.2,762.3,569,724.4,570z"/>
	<path class="st1" d="M562.7,685c-13.3,2.3-26.4-0.4-37.4-6.7c-45.5-25.8-33.5-95.9,18.8-104.6c17.5-2.9,34.4,2.6,46.7,13.5
		c9.3,8.3,15.8,19.7,18.1,32.9c8.3,40.5,66.6,30.9,61.4-10.1c-2.9-18.4-22-30.2-39.5-24.8c-28.4,2.7-54.6-16.4-60.4-44.7
		c0-0.3-0.1-0.6-0.1-0.9c0-0.1-0.1-0.2,0-0.3c-0.3-2-0.7-4.1-1.3-6l0-0.1c-0.1-0.3-0.3-0.7-0.4-1c-0.1-0.3-0.2-0.6-0.3-0.9
		c0-0.1-0.1-0.2-0.2-0.3c-5.4-13-19.2-21.2-33.8-18.8c-13.3,2.3-26.4-0.4-37.4-6.7c-45.5-25.8-33.5-95.9,18.8-104.6
		c17.5-2.9,34.4,2.6,46.7,13.5c9.3,8.3,15.8,19.7,18.1,32.9c8.3,40.5,66.6,30.9,61.4-10.1c-2.9-18.4-22-30.2-39.5-24.8
		c-28.4,2.7-54.6-16.4-60.4-44.7c-1.2-17.9-18.2-31.5-36.1-28.4c-17.2,2.8-28.7,19.3-25.5,36.3c5,30.8-15.9,59.9-46.7,64.8
		c-16.9,2.8-28.4,18.8-25.7,35.8c2.9,18.5,22.1,30.2,39.6,24.8c29.6-3,56.6,17.9,61.2,47.2l0,0c0,0.1,0,0.2,0,0.2
		c5,30.8-15.9,59.9-46.7,64.8c-16.9,2.8-28.4,18.8-25.7,35.8c2.9,18.5,22.1,30.2,39.6,24.8c29.6-3,56.6,17.9,61.2,47.2
		c3,16.7,18.8,28,35.7,25.3c15.9-2.7,27-16.8,26.1-32.6c-0.1-2.1-0.5-4.3-1.1-6.3C593.7,692.3,578.6,682.4,562.7,685z"/>
	<path class="st1" d="M454.1,587.1c37-9.3,29.6-62.4-8.4-61.5l0,0c-2.2,0.1-4.6,0.5-6.8,1.1l0,0c-16.2,1.7-31.6-3.7-43.1-13.9
		c-9.5-8.3-16.2-20-18.3-33.5c-0.1-0.3-0.1-0.8-0.2-1.1c-4.3-29.5,15.3-57.6,44.9-63.4c1.2-0.1,2.4-0.3,3.5-0.5
		c37-9.3,29.6-62.4-8.4-61.5l0,0c-2.2,0.1-4.6,0.5-6.8,1.1l0,0c-16.2,1.7-31.6-3.7-43.1-13.9c-9.5-8.3-16.2-20-18.3-33.5
		c-2.8-16.9-18.8-28.4-35.8-25.7c-16.9,2.8-28.4,18.8-25.7,35.7c2.8,16.9,18.8,28.4,35.7,25.7c13.4-2.3,26.6,0.4,37.6,6.7
		c30.7,17.1,37.7,60.5,13.9,86.3c-31.3,35.1-89.8,18.4-97.6-28.4c-8.4-40.4-66.6-30.8-61.4,10.2c2.7,16.4,17.7,27.7,34,25.9
		c13.5-2.6,27.4-0.2,38.7,6.4c14.5,8.4,24.8,22.5,27.6,39.8c2.7,16.4,17.8,27.8,34.2,25.9c0.5,0,1.1-0.1,1.6-0.2
		c13.4-2.3,26.6,0.4,37.6,6.7c30.7,17.1,37.7,60.5,13.9,86.3c-31.3,35.1-89.8,18.4-97.6-28.4c-8.4-40.4-66.6-30.8-61.4,10.2
		c2.7,16.4,17.7,27.7,34,25.9c13.5-2.6,27.4-0.2,38.7,6.4c14.5,8.4,24.8,22.5,27.6,39.8c2.8,16.9,18.8,28.4,35.7,25.7
		c16.9-2.8,28.4-18.8,25.7-35.8c-5-29.9,14.8-58.6,44.7-64.5C451.7,587.5,452.9,587.3,454.1,587.1z"/>
	<path class="st1" d="M284,640.6c-13.3,2.3-26.4-0.4-37.4-6.7c-45.5-25.8-33.5-95.9,18.8-104.6c17.5-2.9,34.4,2.6,46.7,13.5
		c9.3,8.3,15.8,19.7,18.1,32.9c8.3,40.5,66.6,30.9,61.4-10.1c-2.9-18.4-22-30.2-39.5-24.8c-28.4,2.7-54.6-16.4-60.4-44.7
		c-0.5-8-4.2-15.1-9.7-20.3c-0.1-0.1-0.1-0.1-0.2-0.2c-0.2-0.3-0.6-0.6-0.9-0.7c-0.1-0.1-0.2-0.2-0.3-0.3c-0.2-0.2-0.5-0.4-0.8-0.6
		c-0.1-0.1-0.3-0.3-0.4-0.3c-0.4-0.3-1-0.7-1.4-1c-0.1-0.1-0.3-0.2-0.4-0.3c-0.3-0.2-0.6-0.4-0.8-0.6c-0.1-0.1-0.2-0.1-0.3-0.2
		c-0.3-0.2-0.7-0.3-1-0.6c-0.1-0.1-0.1-0.1-0.2-0.1c-4.9-2.6-10.6-3.9-16.5-3.5l-0.1,0c-0.4,0-0.9,0-1.3,0.1c-0.5,0-1.1,0.1-1.6,0.2
		c-13.3,2.3-26.4-0.4-37.4-6.7c-45.5-25.8-33.5-95.9,18.8-104.6c17.5-2.9,34.4,2.6,46.7,13.5c9.3,8.3,15.8,19.7,18.1,32.9
		c8.3,40.5,66.6,30.9,61.4-10.1c-2.9-18.4-22-30.2-39.5-24.8c-28.4,2.7-54.6-16.4-60.4-44.7c-1.2-17.9-18.2-31.5-36.1-28.4
		c-17.2,2.8-28.7,19.3-25.5,36.3c5,30.8-15.9,59.9-46.7,64.8c-16.9,2.8-28.4,18.8-25.7,35.8c2.9,18.5,22.1,30.2,39.6,24.8
		c29.6-3,56.5,17.9,61.2,47.2c0.1,0.3,0.1,0.6,0.1,0.9c4.6,30.5-16.2,59.1-46.8,64c-16.9,2.8-28.4,18.8-25.7,35.8
		c2.9,18.5,22.1,30.2,39.6,24.8c29.6-3,56.5,17.9,61.2,47.2c3,16.7,18.8,28,35.7,25.3c15.9-2.7,27-16.8,26.1-32.6
		c-0.1-2.1-0.5-4.3-1.1-6.3C315,647.9,299.9,638,284,640.6z"/>
	<path class="st1" d="M170.6,543.9c37-9.3,29.6-62.4-8.4-61.5l0,0c-2.2,0.1-4.6,0.5-6.8,1.1l0,0c-16.2,1.7-31.6-3.7-43.1-13.9
		c-9.5-8.3-16.2-20-18.3-33.5c-2.8-16.9-18.8-28.4-35.8-25.7c-16.9,2.8-28.4,18.8-25.7,35.7c2.8,16.9,18.8,28.4,35.7,25.7
		c13.4-2.3,26.6,0.4,37.6,6.7c30.7,17.1,37.7,60.5,13.9,86.3c-31.3,35.1-89.8,18.4-97.6-28.4c-8.4-40.4-66.6-30.8-61.4,10.2
		c2.6,16.5,17.7,27.8,33.9,26c13.5-2.6,27.4-0.2,38.7,6.4c14.5,8.4,24.8,22.5,27.6,39.8c2.8,16.9,18.8,28.4,35.7,25.7
		c16.9-2.8,28.4-18.8,25.7-35.8c-5-29.9,14.8-58.6,44.7-64.5C168.3,544.3,169.4,544.1,170.6,543.9z"/>
	<path class="st1" d="M0.5,597.3c-13.3,2.3-26.4-0.4-37.4-6.7c-45.5-25.8-33.5-95.9,18.8-104.6c17.5-2.9,34.4,2.6,46.7,13.5
		c9.3,8.3,15.8,19.7,18.1,32.9c8.3,40.5,66.6,30.9,61.4-10.1c-2.9-18.4-22-30.2-39.5-24.8C40.3,500.5,14,481.3,8.2,453
		c-1.2-17.9-18.2-31.5-36.1-28.4c-17.2,2.8-28.7,19.3-25.5,36.3c5,30.8-15.9,59.9-46.7,64.8c-16.9,2.8-28.4,18.8-25.7,35.8
		c2.9,18.5,22.1,30.2,39.6,24.8c29.6-3,56.5,17.9,61.2,47.2c3,16.7,18.8,28,35.7,25.3c15.9-2.7,27-16.8,26.1-32.6
		c-0.1-2.1-0.5-4.3-1.1-6.3C31.5,604.7,16.4,594.8,0.5,597.3z"/>
</g>
<g class="st0">
	<path class="st1" d="M1622,743.1L1622,743.1c-2.2-0.6-4.5-1.1-6.8-1.3l0,0c-15.8-4-28.5-14.3-35.7-27.7
		c-6.1-11.1-8.4-24.3-5.8-37.7c0,0,0,0,0-0.1c0,0,0,0,0-0.1c5.5-29.8,33.9-50,64-45.3c1.2,0.3,2.3,0.5,3.4,0.7
		c37.9,3.8,49.1-48.6,13.1-60.7l0,0c-2.2-0.6-4.5-1.1-6.8-1.3l0,0c-15.8-4-28.5-14.3-35.7-27.7c-6.1-11.1-8.4-24.3-5.8-37.7
		c3.1-16.9-8-33.1-24.9-36.4c-16.9-3.1-33.1,8-36.4,24.8c-3.1,16.9,8,33.1,24.8,36.4c13.4,2.4,24.9,9.4,33,19.1
		c23,26.5,14.8,69.8-16.4,85.9c-41.4,22.3-90.7-13.3-82.1-60c5.9-40.9-52.1-51.7-61.2-11.3c-3.1,16.3,7.2,32.1,23.1,35.9
		c13.6,2.2,25.8,9.2,34.2,19.2c10.8,12.8,15.6,29.6,12.4,46.9c0,0,0,0,0,0.1c0,0,0,0,0,0.1c-3.1,16.9,8,33.1,24.8,36.4
		c13.4,2.4,24.9,9.4,33,19.1c23,26.5,14.8,69.8-16.4,85.9c-41.4,22.3-90.7-13.3-82.1-60c5.9-40.9-52.1-51.7-61.2-11.3
		c-3.1,16.3,7.2,32.1,23.1,35.9c13.6,2.2,25.8,9.2,34.2,19.2c10.8,12.8,15.6,29.6,12.4,46.9c-3.1,16.9,8,33.1,24.8,36.4
		c16.9,3.1,33.1-8,36.4-24.9c5.5-29.8,33.9-50,64-45.3c1.2,0.3,2.3,0.5,3.4,0.7C1646.8,807.6,1658,755.1,1622,743.1z"/>
	<path class="st1" d="M1430.8,796c-13.3-2.4-24.7-9.4-32.9-19c-33.9-39.8,1.2-101.6,53.4-91.9c17.4,3.3,31.5,14.2,39.3,28.7
		c5.9,11,8.2,23.9,5.8,37.1c-6,40.9,52.1,51.7,61.2,11.4c3.6-18.3-10.4-35.9-28.7-36.8c-27.6-7.2-45.8-34.1-41.6-62.6
		c0.1-0.3,0.1-0.6,0.3-0.9c0-0.1,0-0.3,0.1-0.3c0.5-2,0.7-4.1,0.9-6l0-0.1c0-0.3,0-0.8,0-1.1s0-0.6,0-0.9c0-0.1,0-0.3-0.1-0.3
		c-0.6-14.1-10.8-26.5-25.4-29.3c-13.3-2.4-24.7-9.4-32.9-19c-33.9-39.8,1.2-101.6,53.4-91.9c17.4,3.3,31.5,14.2,39.3,28.7
		c5.9,11,8.2,23.9,5.8,37.1c-6,40.9,52.1,51.7,61.2,11.4c3.6-18.3-10.4-35.9-28.7-36.8c-27.6-7.2-45.8-34.1-41.6-62.6
		c4.9-17.2-6.3-35.8-24.2-39c-17.1-3.2-33.6,8.3-36.4,25.4c-5.8,30.7-35.4,50.9-66,45c-16.9-3.1-33.1,8-36.4,24.9
		c-3.6,18.4,10.5,36,28.8,36.8c28.8,7.3,47.1,36.1,41.4,65.2l0,0c0,0.1,0,0.2,0,0.2c-5.8,30.7-35.4,50.9-66,45
		c-16.9-3.1-33.1,8-36.4,24.9c-3.6,18.4,10.5,36,28.8,36.8c28.8,7.3,47.1,36.1,41.4,65.2c-2.9,16.7,8.2,32.7,25,35.9
		c15.9,2.9,31.1-6.6,35.6-21.8c0.6-2,1-4.2,1.1-6.3C1457.4,813.4,1446.6,799,1430.8,796z"/>
	<path class="st1" d="M1362.1,666.9c37.9,3.8,49.1-48.6,13.1-60.7l0,0c-2.2-0.6-4.5-1.1-6.8-1.3l0,0c-15.8-4-28.5-14.3-35.7-27.7
		c-6.1-11.1-8.4-24.3-5.8-37.7c0-0.3,0.2-0.8,0.2-1.1c6-29.2,34.1-48.9,63.8-44.2c1.2,0.3,2.3,0.5,3.4,0.7
		c37.9,3.8,49.1-48.6,13.1-60.7l0,0c-2.2-0.6-4.5-1.1-6.8-1.3l0,0c-15.8-4-28.5-14.3-35.7-27.7c-6.1-11.1-8.4-24.3-5.8-37.7
		c3.1-16.9-8-33.1-24.9-36.4c-16.9-3.1-33.1,8-36.4,24.8c-3.1,16.9,8,33.1,24.8,36.4c13.4,2.4,24.9,9.4,33,19.1
		c23,26.5,14.8,69.8-16.4,85.9c-41.4,22.3-90.7-13.3-82.1-60c5.9-40.9-52.1-51.7-61.2-11.3c-3.1,16.3,7.2,32.1,23.1,35.9
		c13.6,2.2,25.8,9.2,34.2,19.2c10.8,12.8,15.6,29.6,12.4,46.9c-3.1,16.4,7.3,32.2,23.3,36c0.5,0.1,1.1,0.3,1.6,0.3
		c13.4,2.4,24.9,9.4,33,19.1c23,26.5,14.8,69.8-16.4,85.9c-41.4,22.3-90.7-13.3-82.1-60c5.9-40.9-52.1-51.7-61.2-11.3
		c-3.1,16.3,7.2,32.1,23.1,35.9c13.6,2.2,25.8,9.2,34.2,19.2c10.8,12.8,15.6,29.6,12.4,46.9c-3.1,16.9,8,33.1,24.8,36.4
		c16.9,3.1,33.1-8,36.4-24.9c5.5-29.8,33.9-50,64-45.3C1359.7,666.5,1360.9,666.7,1362.1,666.9z"/>
	<path class="st1" d="M1183.9,659.1c-13.3-2.4-24.7-9.4-32.9-19c-33.9-39.8,1.2-101.6,53.4-91.9c17.4,3.3,31.5,14.2,39.3,28.7
		c5.9,11,8.2,23.9,5.8,37.1c-6,40.9,52.1,51.7,61.2,11.4c3.6-18.3-10.4-35.9-28.7-36.8c-27.6-7.2-45.8-34.1-41.6-62.6
		c2.2-7.7,1.2-15.6-2.2-22.4c-0.1-0.1-0.1-0.2-0.1-0.3c-0.1-0.4-0.4-0.7-0.6-1c-0.1-0.2-0.1-0.3-0.2-0.4c-0.1-0.3-0.4-0.5-0.5-0.8
		c-0.1-0.2-0.2-0.4-0.3-0.5c-0.3-0.5-0.7-1-1-1.5c-0.1-0.2-0.2-0.3-0.3-0.5c-0.2-0.3-0.5-0.6-0.6-0.8c-0.1-0.1-0.2-0.2-0.2-0.3
		c-0.2-0.3-0.5-0.6-0.8-0.9c-0.1-0.1-0.1-0.1-0.2-0.2c-3.8-4.1-8.6-7.3-14.4-8.9l-0.1,0c-0.4-0.1-0.8-0.3-1.2-0.3
		c-0.5-0.1-1.1-0.3-1.6-0.3c-13.3-2.4-24.7-9.4-32.9-19c-33.9-39.8,1.2-101.6,53.4-91.9c17.4,3.3,31.5,14.2,39.3,28.7
		c5.9,11,8.2,23.9,5.8,37.1c-6,40.9,52.1,51.7,61.2,11.4c3.6-18.3-10.4-35.9-28.7-36.8c-27.6-7.2-45.8-34.1-41.6-62.6
		c4.9-17.2-6.3-35.8-24.2-39c-17.1-3.2-33.6,8.3-36.4,25.4c-5.8,30.7-35.4,50.9-66,45c-16.9-3.1-33.1,8-36.4,24.9
		c-3.6,18.4,10.5,36,28.8,36.8c28.8,7.3,47,36.1,41.4,65.2c0,0.3-0.1,0.6-0.2,0.9c-6.1,30.2-35.4,50-65.9,44.2
		c-16.9-3.1-33.1,8-36.4,24.9c-3.6,18.4,10.5,36,28.8,36.8c28.8,7.3,47,36.1,41.4,65.2c-2.9,16.7,8.2,32.7,25,35.9
		c15.9,2.9,31.1-6.6,35.6-21.8c0.6-2,1-4.2,1.1-6.3C1210.6,676.6,1199.7,662.1,1183.9,659.1z"/>
	<path class="st1" d="M1110.4,529.5c37.9,3.8,49.1-48.6,13.1-60.7l0,0c-2.2-0.6-4.5-1.1-6.8-1.3l0,0c-15.8-4-28.5-14.3-35.7-27.7
		c-6.1-11.1-8.4-24.3-5.8-37.7c3.1-16.9-8-33.1-24.9-36.4c-16.9-3.1-33.1,8-36.4,24.8c-3.1,16.9,8,33.1,24.8,36.4
		c13.4,2.4,24.9,9.4,33,19.1c23,26.5,14.8,69.8-16.4,85.9c-41.4,22.3-90.7-13.3-82.1-60c5.9-40.9-52.1-51.7-61.2-11.3
		c-3.2,16.4,7.1,32.1,23,36c13.6,2.2,25.8,9.2,34.2,19.2c10.8,12.8,15.6,29.6,12.4,46.9c-3.1,16.9,8,33.1,24.8,36.4
		c16.9,3.1,33.1-8,36.4-24.9c5.5-29.8,33.9-50,64-45.3C1108,529.1,1109.2,529.3,1110.4,529.5z"/>
	<path class="st1" d="M932.2,521.8c-13.3-2.4-24.7-9.4-32.9-19c-33.9-39.8,1.2-101.6,53.4-91.9c17.4,3.3,31.5,14.2,39.3,28.7
		c5.9,11,8.2,23.9,5.8,37.1c-6,40.9,52.1,51.7,61.2,11.4c3.6-18.3-10.4-35.9-28.7-36.8c-27.7-7-45.8-34-41.7-62.5
		c4.9-17.2-6.3-35.8-24.2-39c-17.1-3.2-33.6,8.3-36.4,25.4c-5.8,30.7-35.4,50.9-66,45c-16.9-3.1-33.1,8-36.4,24.9
		c-3.6,18.4,10.5,36,28.8,36.8c28.8,7.3,47,36.1,41.4,65.2c-2.9,16.7,8.2,32.7,25,35.9c15.9,2.9,31.1-6.6,35.6-21.8
		c0.6-2,1-4.2,1.1-6.3C958.9,539.3,948,524.8,932.2,521.8z"/>
</g>
</svg>
