<?xml version="1.0" encoding="utf-8"?>
<!-- Generator: Adobe Illustrator 25.4.1, SVG Export Plug-In . SVG Version: 6.00 Build 0)  -->
<svg version="1.1" id="Capa_1" xmlns="http://www.w3.org/2000/svg" xmlns:xlink="http://www.w3.org/1999/xlink" x="0px" y="0px"
	 viewBox="0 0 1440 724" style="enable-background:new 0 0 1440 724;" xml:space="preserve">
<style type="text/css">
	.st0{opacity:0.12;}
	.st1{fill:#795DF4;}
</style>
<g class="st0">
	<path class="st1" d="M763.5,742.7L763.5,742.7c-0.5,0-1,0.1-1.5,0.3l0,0c-3.7,0.4-7.2-0.8-9.7-3.1c-2.1-1.9-3.7-4.5-4.1-7.6
		c0,0,0,0,0,0c0,0,0,0,0,0c-1.1-6.7,3.3-13.2,10.1-14.6c0.3,0,0.5-0.1,0.8-0.1c8.4-2.1,6.7-14.1-1.9-13.9l0,0c-0.5,0-1,0.1-1.5,0.3
		l0,0c-3.7,0.4-7.2-0.8-9.7-3.1c-2.1-1.9-3.7-4.5-4.1-7.6c-0.6-3.8-4.2-6.4-8.1-5.8c-3.8,0.6-6.4,4.2-5.8,8.1
		c0.6,3.8,4.2,6.4,8.1,5.8c3-0.5,6,0.1,8.5,1.5c6.9,3.9,8.5,13.7,3.2,19.5c-7.1,7.9-20.3,4.2-22.1-6.4c-1.9-9.1-15.1-7-13.9,2.3
		c0.6,3.7,4,6.3,7.7,5.9c3.1-0.6,6.2,0,8.7,1.4c3.3,1.9,5.6,5.1,6.2,9c0,0,0,0,0,0c0,0,0,0,0,0c0.6,3.8,4.2,6.4,8.1,5.8
		c3-0.5,6,0.1,8.5,1.5c6.9,3.9,8.5,13.7,3.2,19.5c-7.1,7.9-20.3,4.2-22.1-6.4c-1.9-9.1-15.1-7-13.9,2.3c0.6,3.7,4,6.3,7.7,5.9
		c3.1-0.6,6.2,0,8.7,1.4c3.3,1.9,5.6,5.1,6.2,9c0.6,3.8,4.2,6.4,8.1,5.8c3.8-0.6,6.4-4.2,5.8-8.1c-1.1-6.7,3.3-13.2,10.1-14.6
		c0.3,0,0.5-0.1,0.8-0.1C773.8,754.5,772.1,742.5,763.5,742.7z"/>
	<path class="st1" d="M727,768.7c-3,0.5-6-0.1-8.4-1.5c-10.3-5.8-7.6-21.7,4.3-23.6c3.9-0.6,7.8,0.6,10.6,3.1
		c2.1,1.9,3.6,4.4,4.1,7.4c1.9,9.1,15.1,7,13.9-2.3c-0.6-4.2-5-6.8-8.9-5.6c-6.4,0.6-12.3-3.7-13.7-10.1c0-0.1,0-0.1,0-0.2
		c0,0,0-0.1,0-0.1c-0.1-0.5-0.2-0.9-0.3-1.4l0,0c0-0.1-0.1-0.2-0.1-0.2c0-0.1-0.1-0.1-0.1-0.2c0,0,0-0.1,0-0.1
		c-1.2-2.9-4.3-4.8-7.6-4.3c-3,0.5-6-0.1-8.4-1.5c-10.3-5.8-7.6-21.7,4.3-23.6c3.9-0.6,7.8,0.6,10.6,3.1c2.1,1.9,3.6,4.4,4.1,7.4
		c1.9,9.1,15.1,7,13.9-2.3c-0.6-4.2-5-6.8-8.9-5.6c-6.4,0.6-12.3-3.7-13.7-10.1c-0.3-4-4.1-7.1-8.2-6.4c-3.9,0.6-6.5,4.4-5.8,8.2
		c1.1,7-3.6,13.5-10.6,14.6c-3.8,0.6-6.4,4.2-5.8,8.1c0.7,4.2,5,6.8,9,5.6c6.7-0.7,12.8,4,13.8,10.7l0,0c0,0,0,0,0,0
		c1.1,7-3.6,13.5-10.6,14.6c-3.8,0.6-6.4,4.2-5.8,8.1c0.7,4.2,5,6.8,9,5.6c6.7-0.7,12.8,4,13.8,10.7c0.7,3.8,4.3,6.3,8.1,5.7
		c3.6-0.6,6.1-3.8,5.9-7.4c0-0.5-0.1-1-0.2-1.4C734,770.3,730.6,768.1,727,768.7z"/>
	<path class="st1" d="M702.4,746.6c8.4-2.1,6.7-14.1-1.9-13.9l0,0c-0.5,0-1,0.1-1.5,0.3l0,0c-3.7,0.4-7.2-0.8-9.7-3.1
		c-2.1-1.9-3.7-4.5-4.1-7.6c0-0.1,0-0.2,0-0.2c-1-6.7,3.5-13,10.1-14.3c0.3,0,0.5-0.1,0.8-0.1c8.4-2.1,6.7-14.1-1.9-13.9l0,0
		c-0.5,0-1,0.1-1.5,0.3l0,0c-3.7,0.4-7.2-0.8-9.7-3.1c-2.1-1.9-3.7-4.5-4.1-7.6c-0.6-3.8-4.2-6.4-8.1-5.8c-3.8,0.6-6.4,4.2-5.8,8.1
		c0.6,3.8,4.2,6.4,8.1,5.8c3-0.5,6,0.1,8.5,1.5c6.9,3.9,8.5,13.7,3.2,19.5c-7.1,7.9-20.3,4.2-22.1-6.4c-1.9-9.1-15.1-7-13.9,2.3
		c0.6,3.7,4,6.3,7.7,5.9c3.1-0.6,6.2,0,8.7,1.4c3.3,1.9,5.6,5.1,6.2,9c0.6,3.7,4,6.3,7.7,5.9c0.1,0,0.3,0,0.4-0.1
		c3-0.5,6,0.1,8.5,1.5c6.9,3.9,8.5,13.7,3.2,19.5c-7.1,7.9-20.3,4.2-22.1-6.4c-1.9-9.1-15.1-7-13.9,2.3c0.6,3.7,4,6.3,7.7,5.9
		c3.1-0.6,6.2,0,8.7,1.4c3.3,1.9,5.6,5.1,6.2,9c0.6,3.8,4.2,6.4,8.1,5.8c3.8-0.6,6.4-4.2,5.8-8.1c-1.1-6.7,3.3-13.2,10.1-14.6
		C701.9,746.7,702.1,746.6,702.4,746.6z"/>
	<path class="st1" d="M664,758.6c-3,0.5-6-0.1-8.4-1.5c-10.3-5.8-7.6-21.7,4.3-23.6c3.9-0.6,7.8,0.6,10.6,3.1
		c2.1,1.9,3.6,4.4,4.1,7.4c1.9,9.1,15.1,7,13.9-2.3c-0.6-4.2-5-6.8-8.9-5.6c-6.4,0.6-12.3-3.7-13.7-10.1c-0.1-1.8-0.9-3.4-2.2-4.6
		c0,0,0,0-0.1,0c-0.1-0.1-0.1-0.1-0.2-0.2c0,0-0.1,0-0.1-0.1c-0.1,0-0.1-0.1-0.2-0.1c0,0-0.1-0.1-0.1-0.1c-0.1-0.1-0.2-0.2-0.3-0.2
		c0,0-0.1,0-0.1-0.1c-0.1,0-0.1-0.1-0.2-0.1c0,0,0,0-0.1,0c-0.1,0-0.2-0.1-0.2-0.1c0,0,0,0,0,0c-1.1-0.6-2.4-0.9-3.7-0.8l0,0
		c-0.1,0-0.2,0-0.3,0c-0.1,0-0.3,0-0.4,0.1c-3,0.5-6-0.1-8.4-1.5c-10.3-5.8-7.6-21.7,4.3-23.6c3.9-0.6,7.8,0.6,10.6,3.1
		c2.1,1.9,3.6,4.4,4.1,7.4c1.9,9.1,15.1,7,13.9-2.3c-0.6-4.2-5-6.8-8.9-5.6c-6.4,0.6-12.3-3.7-13.7-10.1c-0.3-4-4.1-7.1-8.2-6.4
		c-3.9,0.6-6.5,4.4-5.8,8.2c1.1,7-3.6,13.5-10.6,14.6c-3.8,0.6-6.4,4.2-5.8,8.1c0.7,4.2,5,6.8,9,5.6c6.7-0.7,12.8,4,13.8,10.7
		c0,0.1,0,0.1,0,0.2c1,6.9-3.7,13.4-10.6,14.5c-3.8,0.6-6.4,4.2-5.8,8.1c0.7,4.2,5,6.8,9,5.6c6.7-0.7,12.8,4,13.8,10.7
		c0.7,3.8,4.3,6.3,8.1,5.7c3.6-0.6,6.1-3.8,5.9-7.4c0-0.5-0.1-1-0.2-1.4C671,760.3,667.6,758.1,664,758.6z"/>
	<path class="st1" d="M638.3,736.8c8.4-2.1,6.7-14.1-1.9-13.9l0,0c-0.5,0-1,0.1-1.5,0.3l0,0c-3.7,0.4-7.2-0.8-9.7-3.1
		c-2.1-1.9-3.7-4.5-4.1-7.6c-0.6-3.8-4.2-6.4-8.1-5.8c-3.8,0.6-6.4,4.2-5.8,8.1c0.6,3.8,4.2,6.4,8.1,5.8c3-0.5,6,0.1,8.5,1.5
		c6.9,3.9,8.5,13.7,3.2,19.5c-7.1,7.9-20.3,4.2-22.1-6.4c-1.9-9.1-15.1-7-13.9,2.3c0.6,3.7,4,6.3,7.7,5.9c3.1-0.6,6.2,0,8.7,1.4
		c3.3,1.9,5.6,5.1,6.2,9c0.6,3.8,4.2,6.4,8.1,5.8c3.8-0.6,6.4-4.2,5.8-8.1c-1.1-6.7,3.3-13.2,10.1-14.6
		C637.8,736.9,638.1,736.8,638.3,736.8z"/>
	<path class="st1" d="M599.9,748.9c-3,0.5-6-0.1-8.4-1.5c-10.3-5.8-7.6-21.7,4.3-23.6c3.9-0.6,7.8,0.6,10.6,3.1
		c2.1,1.9,3.6,4.4,4.1,7.4c1.9,9.1,15.1,7,13.9-2.3c-0.6-4.2-5-6.8-8.9-5.6c-6.4,0.6-12.4-3.7-13.7-10.1c-0.3-4-4.1-7.1-8.2-6.4
		c-3.9,0.6-6.5,4.4-5.8,8.2c1.1,7-3.6,13.5-10.6,14.6c-3.8,0.6-6.4,4.2-5.8,8.1c0.7,4.2,5,6.8,9,5.6c6.7-0.7,12.8,4,13.8,10.7
		c0.7,3.8,4.3,6.3,8.1,5.7c3.6-0.6,6.1-3.8,5.9-7.4c0-0.5-0.1-1-0.2-1.4C606.9,750.5,603.5,748.3,599.9,748.9z"/>
</g>
<g class="st0">
	<path class="st1" d="M966.4,781.8L966.4,781.8c-0.5-0.1-1-0.3-1.5-0.3l0,0c-3.6-0.9-6.4-3.2-8.1-6.3c-1.4-2.5-1.9-5.5-1.3-8.5
		c0,0,0,0,0,0c0,0,0,0,0,0c1.2-6.7,7.7-11.3,14.5-10.2c0.3,0.1,0.5,0.1,0.8,0.2c8.6,0.9,11.1-11,3-13.7l0,0c-0.5-0.1-1-0.3-1.5-0.3
		l0,0c-3.6-0.9-6.4-3.2-8.1-6.3c-1.4-2.5-1.9-5.5-1.3-8.5c0.7-3.8-1.8-7.5-5.6-8.2c-3.8-0.7-7.5,1.8-8.2,5.6
		c-0.7,3.8,1.8,7.5,5.6,8.2c3,0.6,5.6,2.1,7.5,4.3c5.2,6,3.3,15.8-3.7,19.4c-9.4,5-20.5-3-18.6-13.6c1.3-9.2-11.8-11.7-13.8-2.6
		c-0.7,3.7,1.6,7.2,5.2,8.1c3.1,0.5,5.8,2.1,7.7,4.3c2.4,2.9,3.5,6.7,2.8,10.6c0,0,0,0,0,0c0,0,0,0,0,0c-0.7,3.8,1.8,7.5,5.6,8.2
		c3,0.6,5.6,2.1,7.5,4.3c5.2,6,3.3,15.8-3.7,19.4c-9.4,5-20.5-3-18.6-13.6c1.3-9.2-11.8-11.7-13.8-2.6c-0.7,3.7,1.6,7.2,5.2,8.1
		c3.1,0.5,5.8,2.1,7.7,4.3c2.4,2.9,3.5,6.7,2.8,10.6c-0.7,3.8,1.8,7.5,5.6,8.2c3.8,0.7,7.5-1.8,8.2-5.6c1.2-6.7,7.7-11.3,14.5-10.2
		c0.3,0.1,0.5,0.1,0.8,0.2C972,796.4,974.5,784.5,966.4,781.8z"/>
	<path class="st1" d="M923.2,793.8c-3-0.5-5.6-2.1-7.4-4.3c-7.7-9,0.3-23,12.1-20.8c3.9,0.7,7.1,3.2,8.9,6.5
		c1.3,2.5,1.9,5.4,1.3,8.4c-1.4,9.2,11.8,11.7,13.8,2.6c0.8-4.1-2.4-8.1-6.5-8.3c-6.2-1.6-10.3-7.7-9.4-14.2c0-0.1,0-0.1,0.1-0.2
		c0,0,0-0.1,0-0.1c0.1-0.5,0.2-0.9,0.2-1.4l0,0c0-0.1,0-0.2,0-0.2s0-0.1,0-0.2c0,0,0-0.1,0-0.1c-0.1-3.2-2.4-6-5.7-6.6
		c-3-0.5-5.6-2.1-7.4-4.3c-7.7-9,0.3-23,12.1-20.8c3.9,0.7,7.1,3.2,8.9,6.5c1.3,2.5,1.9,5.4,1.3,8.4c-1.4,9.2,11.8,11.7,13.8,2.6
		c0.8-4.1-2.4-8.1-6.5-8.3c-6.2-1.6-10.3-7.7-9.4-14.2c1.1-3.9-1.4-8.1-5.5-8.8c-3.9-0.7-7.6,1.9-8.2,5.7c-1.3,6.9-8,11.5-14.9,10.2
		c-3.8-0.7-7.5,1.8-8.2,5.6c-0.8,4.2,2.4,8.1,6.5,8.3c6.5,1.6,10.6,8.2,9.4,14.7l0,0c0,0,0,0,0,0c-1.3,6.9-8,11.5-14.9,10.2
		c-3.8-0.7-7.5,1.8-8.2,5.6c-0.8,4.2,2.4,8.1,6.5,8.3c6.5,1.6,10.6,8.2,9.4,14.7c-0.7,3.8,1.8,7.4,5.6,8.1c3.6,0.7,7-1.5,8.1-4.9
		c0.1-0.4,0.2-0.9,0.3-1.4C929.2,797.7,926.7,794.5,923.2,793.8z"/>
	<path class="st1" d="M907.6,764.6c8.6,0.9,11.1-11,3-13.7l0,0c-0.5-0.1-1-0.3-1.5-0.3l0,0c-3.6-0.9-6.4-3.2-8.1-6.3
		c-1.4-2.5-1.9-5.5-1.3-8.5c0-0.1,0-0.2,0-0.2c1.4-6.6,7.7-11.1,14.4-10c0.3,0.1,0.5,0.1,0.8,0.2c8.6,0.9,11.1-11,3-13.7l0,0
		c-0.5-0.1-1-0.3-1.5-0.3l0,0c-3.6-0.9-6.4-3.2-8.1-6.3c-1.4-2.5-1.9-5.5-1.3-8.5c0.7-3.8-1.8-7.5-5.6-8.2c-3.8-0.7-7.5,1.8-8.2,5.6
		c-0.7,3.8,1.8,7.5,5.6,8.2c3,0.6,5.6,2.1,7.5,4.3c5.2,6,3.3,15.8-3.7,19.4c-9.4,5-20.5-3-18.6-13.6c1.3-9.2-11.8-11.7-13.8-2.6
		c-0.7,3.7,1.6,7.2,5.2,8.1c3.1,0.5,5.8,2.1,7.7,4.3c2.4,2.9,3.5,6.7,2.8,10.6c-0.7,3.7,1.6,7.3,5.3,8.1c0.1,0,0.2,0.1,0.4,0.1
		c3,0.6,5.6,2.1,7.5,4.3c5.2,6,3.3,15.8-3.7,19.4c-9.4,5-20.5-3-18.6-13.6c1.3-9.2-11.8-11.7-13.8-2.6c-0.7,3.7,1.6,7.2,5.2,8.1
		c3.1,0.5,5.8,2.1,7.7,4.3c2.4,2.9,3.5,6.7,2.8,10.6c-0.7,3.8,1.8,7.5,5.6,8.2c3.8,0.7,7.5-1.8,8.2-5.6c1.2-6.7,7.7-11.3,14.5-10.2
		C907.1,764.5,907.4,764.6,907.6,764.6z"/>
	<path class="st1" d="M867.4,762.8c-3-0.5-5.6-2.1-7.4-4.3c-7.7-9,0.3-23,12.1-20.8c3.9,0.7,7.1,3.2,8.9,6.5
		c1.3,2.5,1.9,5.4,1.3,8.4c-1.4,9.2,11.8,11.7,13.8,2.6c0.8-4.1-2.4-8.1-6.5-8.3c-6.2-1.6-10.3-7.7-9.4-14.2
		c0.5-1.7,0.3-3.5-0.5-5.1c0,0,0,0,0-0.1c0-0.1-0.1-0.2-0.1-0.2c0,0,0-0.1,0-0.1c0-0.1-0.1-0.1-0.1-0.2c0,0,0-0.1-0.1-0.1
		c-0.1-0.1-0.2-0.2-0.2-0.3c0,0-0.1-0.1-0.1-0.1c-0.1-0.1-0.1-0.1-0.1-0.2c0,0,0,0-0.1-0.1c-0.1-0.1-0.1-0.1-0.2-0.2c0,0,0,0,0,0
		c-0.9-0.9-2-1.7-3.2-2l0,0c-0.1,0-0.2-0.1-0.3-0.1c-0.1,0-0.2-0.1-0.4-0.1c-3-0.5-5.6-2.1-7.4-4.3c-7.7-9,0.3-23,12.1-20.8
		c3.9,0.7,7.1,3.2,8.9,6.5c1.3,2.5,1.9,5.4,1.3,8.4c-1.4,9.2,11.8,11.7,13.8,2.6c0.8-4.1-2.4-8.1-6.5-8.3
		c-6.2-1.6-10.3-7.7-9.4-14.2c1.1-3.9-1.4-8.1-5.5-8.8c-3.9-0.7-7.6,1.9-8.2,5.7c-1.3,6.9-8,11.5-14.9,10.2
		c-3.8-0.7-7.5,1.8-8.2,5.6c-0.8,4.2,2.4,8.1,6.5,8.3c6.5,1.6,10.6,8.2,9.4,14.7c0,0.1,0,0.1,0,0.2c-1.4,6.8-8,11.3-14.9,10
		c-3.8-0.7-7.5,1.8-8.2,5.6c-0.8,4.2,2.4,8.1,6.5,8.3c6.5,1.6,10.6,8.2,9.4,14.7c-0.7,3.8,1.8,7.4,5.6,8.1c3.6,0.7,7-1.5,8.1-4.9
		c0.1-0.4,0.2-0.9,0.3-1.4C873.4,766.8,870.9,763.5,867.4,762.8z"/>
	<path class="st1" d="M850.7,733.5c8.6,0.9,11.1-11,3-13.7l0,0c-0.5-0.1-1-0.3-1.5-0.3l0,0c-3.6-0.9-6.4-3.2-8.1-6.3
		c-1.4-2.5-1.9-5.5-1.3-8.5c0.7-3.8-1.8-7.5-5.6-8.2c-3.8-0.7-7.5,1.8-8.2,5.6c-0.7,3.8,1.8,7.5,5.6,8.2c3,0.6,5.6,2.1,7.5,4.3
		c5.2,6,3.3,15.8-3.7,19.4c-9.4,5-20.5-3-18.6-13.6c1.3-9.2-11.8-11.7-13.8-2.6c-0.7,3.7,1.6,7.3,5.2,8.1c3.1,0.5,5.8,2.1,7.7,4.3
		c2.4,2.9,3.5,6.7,2.8,10.6c-0.7,3.8,1.8,7.5,5.6,8.2c3.8,0.7,7.5-1.8,8.2-5.6c1.2-6.7,7.7-11.3,14.5-10.2
		C850.2,733.5,850.5,733.5,850.7,733.5z"/>
	<path class="st1" d="M810.5,731.8c-3-0.5-5.6-2.1-7.4-4.3c-7.7-9,0.3-23,12.1-20.8c3.9,0.7,7.1,3.2,8.9,6.5
		c1.3,2.5,1.9,5.4,1.3,8.4c-1.4,9.2,11.8,11.7,13.8,2.6c0.8-4.1-2.4-8.1-6.5-8.3c-6.3-1.6-10.4-7.7-9.4-14.1
		c1.1-3.9-1.4-8.1-5.5-8.8c-3.9-0.7-7.6,1.9-8.2,5.7c-1.3,6.9-8,11.5-14.9,10.2c-3.8-0.7-7.5,1.8-8.2,5.6c-0.8,4.2,2.4,8.1,6.5,8.3
		c6.5,1.6,10.6,8.2,9.4,14.7c-0.7,3.8,1.8,7.4,5.6,8.1c3.6,0.7,7-1.5,8.1-4.9c0.1-0.4,0.2-0.9,0.3-1.4
		C816.5,735.8,814.1,732.5,810.5,731.8z"/>
</g>
</svg>
