<?xml version="1.0" encoding="utf-8"?>
<!-- Generator: Adobe Illustrator 25.4.1, SVG Export Plug-In . SVG Version: 6.00 Build 0)  -->
<svg version="1.1" id="Capa_1" xmlns="http://www.w3.org/2000/svg" xmlns:xlink="http://www.w3.org/1999/xlink" x="0px" y="0px"
	 viewBox="0 0 1440 724" style="enable-background:new 0 0 1440 724;" xml:space="preserve">
<style type="text/css">
	.st0{opacity:0.4;}
	.st1{fill:#8DFAF6;}
</style>
<g class="st0">
	<path class="st1" d="M-715.4,106.3L-715.4,106.3c2.7,0.5,5.4,0.8,8.1,0.7l0,0c19,2.8,35.1,13.5,45.2,28.4
		c8.4,12.3,12.7,27.6,11.2,43.6c0,0,0,0,0,0.1c0,0,0,0,0,0.1c-3,35.6-34,62.7-69.9,60.7c-1.4-0.2-2.8-0.3-4.1-0.4
		c-45-0.1-52,62.8-8.3,72.8l0,0c2.6,0.5,5.4,0.8,8.1,0.7l0,0c19,2.8,35.1,13.5,45.2,28.4c8.4,12.3,12.7,27.6,11.2,43.6
		c-1.7,20.2,13.2,38,33.5,39.8c20.2,1.7,38-13.2,39.8-33.4c1.7-20.2-13.2-38-33.4-39.8c-16-1.3-30.3-8.2-41-18.6
		c-30.1-28.5-25.5-80.2,9.2-102.8c46-31,108.1,5.1,103.4,60.9c-2.2,48.7,67.2,54.6,73.2,6.2c1.7-19.5-12.2-36.8-31.3-39.5
		c-16.2-1-31.4-7.8-42.4-18.6c-14.2-13.8-21.8-32.9-20-53.6c0,0,0,0,0-0.1c0,0,0,0,0-0.1c1.7-20.2-13.2-38-33.4-39.8
		c-16-1.3-30.3-8.2-41-18.6c-30.1-28.5-25.5-80.2,9.2-102.8c46-31,108.1,5.1,103.4,60.9c-2.2,48.7,67.2,54.6,73.2,6.2
		c1.7-19.5-12.2-36.8-31.3-39.5c-16.2-1-31.4-7.8-42.4-18.6c-14.2-13.8-21.8-32.9-20-53.6c1.7-20.2-13.2-38-33.4-39.8
		c-20.2-1.7-38,13.2-39.8,33.5c-3,35.6-34,62.7-69.9,60.7c-1.4-0.2-2.8-0.3-4.1-0.4C-752.1,33.4-759.1,96.4-715.4,106.3z"/>
	<path class="st1" d="M-497,21.9c15.9,1.3,30.1,8.2,40.8,18.5c44.5,42.8,10.4,119.5-52,114.1c-20.8-1.8-38.6-13-49.5-29.1
		c-8.2-12.2-12.4-27.1-11.1-42.9c2.3-48.7-67.2-54.7-73.2-6.3c-2.1,21.9,16.4,40.9,38,39.9c33.3,5.2,57.7,34.7,56.1,68.7
		c-0.1,0.4-0.1,0.7-0.2,1.1c0,0.1,0,0.3-0.1,0.4c-0.3,2.4-0.4,4.9-0.3,7.2v0.1c0,0.4,0.1,0.9,0.1,1.3c0,0.4,0.1,0.7,0.1,1.1
		c0,0.1,0,0.3,0.1,0.4c2.4,16.5,15.8,29.9,33.2,31.4c15.9,1.3,30.1,8.2,40.8,18.5c44.5,42.8,10.4,119.5-52,114.1
		c-20.8-1.8-38.6-13-49.5-29.1c-8.2-12.2-12.4-27.1-11.1-42.9c2.3-48.7-67.2-54.7-73.2-6.3c-2.1,21.9,16.4,40.9,38,39.9
		c33.3,5.2,57.7,34.7,56.1,68.7c-3.8,20.8,11.6,41.3,33,43c20.5,1.8,38.5-13.7,39.8-34.1c3.2-36.7,35.6-63.9,72.3-60.5
		c20.2,1.7,38-13.2,39.8-33.5c2.1-22-16.5-41-38.1-39.9c-34.7-5.2-59.5-36.9-56.2-71.8l0,0c0-0.1,0-0.2,0-0.2
		c3.2-36.7,35.6-63.9,72.3-60.5c20.2,1.7,38-13.2,39.8-33.5c2.1-22-16.5-41-38.1-39.9c-34.7-5.2-59.5-36.9-56.2-71.8
		c1.5-20-13.4-37.5-33.5-39.3c-19-1.6-35.8,11.4-39.3,29.7c-0.5,2.4-0.7,5-0.6,7.5C-530.3,4.5-516,20.2-497,21.9z"/>
	<path class="st1" d="M-401.3,165.5c-45-0.1-52,62.8-8.3,72.8l0,0c2.6,0.5,5.4,0.8,8.1,0.7l0,0c19,2.8,35.1,13.5,45.2,28.4
		c8.4,12.3,12.7,27.6,11.2,43.6c0,0.4-0.1,0.9-0.1,1.3c-3.7,35-34.3,61.4-69.8,59.4c-1.4-0.2-2.8-0.3-4.1-0.4
		c-45-0.1-52,62.8-8.3,72.8l0,0c2.6,0.5,5.4,0.8,8.1,0.7l0,0c19,2.8,35.1,13.5,45.2,28.4c8.4,12.3,12.7,27.6,11.2,43.6
		c-1.7,20.2,13.2,38,33.5,39.8c20.2,1.7,38-13.2,39.8-33.4c1.7-20.2-13.2-38-33.4-39.8c-16-1.3-30.3-8.2-41-18.6
		c-30.1-28.5-25.5-80.2,9.2-102.8c46-31,108.1,5.1,103.4,60.9c-2.2,48.7,67.2,54.6,73.2,6.2c1.7-19.5-12.2-36.8-31.3-39.5
		c-16.2-1-31.4-7.8-42.4-18.6c-14.2-13.8-21.8-32.9-20-53.6c1.7-19.6-12.3-37-31.6-39.6c-0.6-0.1-1.3-0.2-1.9-0.2
		c-16-1.3-30.3-8.2-41-18.6c-30.1-28.5-25.5-80.2,9.2-102.8c46-31,108.1,5.1,103.4,60.9c-2.2,48.7,67.2,54.6,73.2,6.2
		c1.7-19.5-12.2-36.8-31.3-39.5c-16.2-1-31.4-7.8-42.4-18.6c-14.2-13.8-21.8-32.9-20-53.6c1.7-20.2-13.2-38-33.4-39.8
		c-20.2-1.7-38,13.2-39.8,33.5c-3,35.6-34,62.7-69.9,60.7C-398.5,165.7-399.9,165.6-401.3,165.5z"/>
	<path class="st1" d="M-191.2,153.9c15.9,1.3,30.1,8.2,40.8,18.5c44.5,42.8,10.4,119.5-52,114.1c-20.8-1.8-38.6-13-49.5-29.1
		c-8.2-12.2-12.4-27.1-11.1-42.9c2.3-48.7-67.2-54.7-73.2-6.3c-2.1,21.9,16.4,40.9,38,39.9c33.3,5.2,57.7,34.7,56.1,68.7
		c-1.7,9.3,0.4,18.5,5.2,26c0.1,0.1,0.1,0.2,0.2,0.3c0.2,0.4,0.5,0.8,0.8,1.1c0.1,0.2,0.2,0.3,0.3,0.4c0.2,0.3,0.5,0.6,0.7,0.9
		c0.1,0.2,0.3,0.4,0.4,0.5c0.4,0.5,0.9,1.1,1.3,1.6c0.1,0.2,0.3,0.3,0.4,0.5c0.3,0.3,0.6,0.6,0.8,0.9c0.1,0.1,0.2,0.2,0.3,0.3
		c0.3,0.3,0.7,0.6,1,1c0.1,0.1,0.1,0.1,0.2,0.2c4.9,4.4,11,7.6,17.9,8.8h0.1c0.5,0.1,1,0.2,1.5,0.2c0.6,0.1,1.3,0.2,1.9,0.2
		c15.9,1.3,30.1,8.2,40.8,18.5c44.5,42.8,10.4,119.5-52,114.1c-20.8-1.8-38.6-13-49.5-29.1c-8.2-12.2-12.4-27.1-11.1-42.9
		c2.3-48.7-67.2-54.7-73.2-6.3c-2.1,21.9,16.4,40.9,38,39.9c33.3,5.2,57.7,34.7,56.1,68.7c-3.8,20.8,11.6,41.3,33,43
		c20.5,1.8,38.5-13.7,39.8-34.1c3.2-36.7,35.6-63.9,72.3-60.5c20.2,1.7,38-13.2,39.8-33.5c2.1-22-16.5-41-38.1-39.9
		c-34.7-5.2-59.4-36.9-56.2-71.8c0-0.4,0-0.7,0.1-1.1c3.6-36.2,35.8-62.9,72.2-59.6c20.2,1.7,38-13.2,39.8-33.5
		c2.1-22-16.5-41-38.1-39.9c-34.7-5.2-59.4-36.9-56.2-71.8c1.5-20-13.4-37.5-33.5-39.3c-19-1.6-35.8,11.4-39.3,29.7
		c-0.5,2.4-0.7,5-0.6,7.5C-224.5,136.5-210.1,152.2-191.2,153.9z"/>
	<path class="st1" d="M-89.7,297.5c-45-0.1-52,62.8-8.3,72.8l0,0c2.6,0.5,5.4,0.8,8.1,0.7l0,0c19,2.8,35.1,13.5,45.2,28.4
		C-36.3,411.7-32,427-33.5,443c-1.7,20.2,13.2,38,33.5,39.8c20.2,1.7,38-13.2,39.8-33.4c1.7-20.2-13.2-38-33.4-39.8
		c-16-1.3-30.3-8.2-41-18.6c-30.1-28.5-25.5-80.2,9.2-102.8c46-31,108.1,5.1,103.4,60.9c-2.2,48.7,67.2,54.6,73.2,6.2
		c1.8-19.6-12.1-36.9-31.2-39.6c-16.2-1-31.4-7.8-42.4-18.6c-14.2-13.8-21.8-32.9-20-53.6c1.7-20.2-13.2-38-33.4-39.8
		c-20.2-1.7-38,13.2-39.8,33.5c-3,35.6-34,62.7-69.9,60.7C-86.9,297.7-88.3,297.6-89.7,297.5z"/>
	<path class="st1" d="M120.4,285.9c15.9,1.3,30.1,8.2,40.8,18.5c44.5,42.8,10.4,119.5-52,114.1c-20.8-1.8-38.6-13-49.5-29.1
		c-8.2-12.2-12.4-27.1-11.1-42.9c2.3-48.7-67.2-54.7-73.2-6.3c-2.1,21.9,16.4,40.9,38,39.9c33.3,5,57.8,34.6,56.2,68.6
		c-3.8,20.8,11.6,41.3,33,43c20.5,1.8,38.5-13.7,39.8-34.1c3.2-36.7,35.6-63.9,72.3-60.5c20.2,1.7,38-13.2,39.8-33.5
		c2.1-22-16.5-41-38.1-39.9c-34.7-5.2-59.4-36.9-56.2-71.8c1.5-20-13.4-37.5-33.5-39.3c-19-1.6-35.8,11.4-39.3,29.7
		c-0.5,2.4-0.7,5-0.6,7.5C87.1,268.4,101.5,284.2,120.4,285.9z"/>
</g>
<g class="st0">
	<path class="st1" d="M658.5,462.1c-29.2-0.1-33.8,40.8-5.4,47.3l0,0c1.7,0.3,3.5,0.5,5.3,0.5l0,0c12.3,1.8,22.8,8.8,29.4,18.5
		c5.5,8,8.3,17.9,7.3,28.3c-1.1,13.1,8.6,24.7,21.8,25.9c13.1,1.1,24.7-8.6,25.9-21.7c1.1-13.1-8.6-24.7-21.7-25.9
		c-10.4-0.8-19.7-5.3-26.6-12.1c-19.6-18.5-16.6-52.1,6-66.8c29.9-20.1,70.3,3.3,67.2,39.6c-1.4,31.6,43.7,35.5,47.6,4
		c1.2-12.7-7.9-24-20.3-25.7c-10.5-0.6-20.4-5.1-27.6-12.1c-9.2-9-14.2-21.4-13-34.8c1.1-13.1-8.6-24.7-21.7-25.9
		c-13.1-1.1-24.7,8.6-25.9,21.8c-1.9,23.1-22.1,40.7-45.4,39.4C660.3,462.2,659.4,462.1,658.5,462.1z"/>
	<path class="st1" d="M795,454.5c10.3,0.8,19.6,5.3,26.5,12c28.9,27.8,6.8,77.7-33.8,74.1c-13.5-1.2-25.1-8.4-32.2-18.9
		c-5.3-7.9-8.1-17.6-7.2-27.9c1.5-31.6-43.7-35.5-47.6-4.1c-1.4,14.2,10.7,26.6,24.7,25.9c21.6,3.2,37.6,22.5,36.5,44.6
		c-2.5,13.5,7.5,26.8,21.4,27.9c13.3,1.2,25-8.9,25.9-22.2c2.1-23.9,23.1-41.5,47-39.3c13.1,1.1,24.7-8.6,25.9-21.8
		c1.4-14.3-10.7-26.6-24.8-25.9c-22.6-3.4-38.6-24-36.5-46.7c1-13-8.7-24.4-21.8-25.5c-12.3-1-23.3,7.4-25.5,19.3
		c-0.3,1.6-0.5,3.2-0.4,4.9C773.4,443.2,782.8,453.4,795,454.5z"/>
</g>
</svg>
