<?xml version="1.0" encoding="utf-8"?>
<!-- Generator: Adobe Illustrator 25.4.1, SVG Export Plug-In . SVG Version: 6.00 Build 0)  -->
<svg version="1.1" id="Capa_1" xmlns="http://www.w3.org/2000/svg" xmlns:xlink="http://www.w3.org/1999/xlink" x="0px" y="0px"
	 viewBox="0 0 1440 724" style="enable-background:new 0 0 1440 724;" xml:space="preserve">
<style type="text/css">
	.st0{opacity:0.3;}
	.st1{fill:#795DF4;}
</style>
<g class="st0">
	<path class="st1" d="M1570.3,303.4C1570.3,303.4,1570.3,303.4,1570.3,303.4c-2.7-0.5-5.4-0.8-8.1-0.7c0,0,0,0,0,0
		c-19-2.8-35.1-13.5-45.2-28.4c-8.4-12.3-12.7-27.6-11.2-43.6c0,0,0,0,0-0.1c0,0,0,0,0-0.1c3-35.6,34-62.7,69.9-60.7
		c1.4,0.2,2.8,0.3,4.1,0.4c45,0.1,52-62.8,8.3-72.8c0,0,0,0,0,0c-2.6-0.5-5.4-0.8-8.1-0.7c0,0,0,0,0,0c-19-2.8-35.1-13.5-45.2-28.4
		c-8.4-12.3-12.7-27.6-11.2-43.6c1.7-20.2-13.2-38-33.5-39.8c-20.2-1.7-38,13.2-39.8,33.4c-1.7,20.2,13.2,38,33.4,39.8
		c16,1.3,30.3,8.2,41,18.6c30.1,28.5,25.5,80.2-9.2,102.8c-46,31-108.1-5.1-103.4-60.9c2.2-48.7-67.2-54.6-73.2-6.2
		c-1.7,19.5,12.2,36.8,31.3,39.5c16.2,1,31.4,7.8,42.4,18.6c14.2,13.8,21.8,32.9,20,53.6c0,0,0,0,0,0.1c0,0,0,0,0,0.1
		c-1.7,20.2,13.2,38,33.4,39.8c16,1.3,30.3,8.2,41,18.6c30.1,28.5,25.5,80.2-9.2,102.8c-46,31-108.1-5.1-103.4-60.9
		c2.2-48.7-67.2-54.6-73.2-6.2c-1.7,19.5,12.2,36.8,31.3,39.5c16.2,1,31.4,7.8,42.4,18.6c14.2,13.8,21.8,32.9,20,53.6
		c-1.7,20.2,13.2,38,33.4,39.8c20.2,1.7,38-13.2,39.8-33.5c3-35.6,34-62.7,69.9-60.7c1.4,0.2,2.8,0.3,4.1,0.4
		C1607,376.3,1614,313.3,1570.3,303.4z"/>
	<path class="st1" d="M1351.9,387.8c-15.9-1.3-30.1-8.2-40.8-18.5c-44.5-42.8-10.4-119.5,52-114.1c20.8,1.8,38.6,13,49.5,29.1
		c8.2,12.2,12.4,27.1,11.1,42.9c-2.3,48.7,67.2,54.7,73.2,6.3c2.1-21.9-16.4-40.9-38-39.9c-33.3-5.2-57.7-34.7-56.1-68.7
		c0.1-0.4,0.1-0.7,0.2-1.1c0-0.1,0-0.3,0.1-0.4c0.3-2.4,0.4-4.9,0.3-7.2c0,0,0-0.1,0-0.1c0-0.4-0.1-0.9-0.1-1.3
		c0-0.4-0.1-0.7-0.1-1.1c0-0.1,0-0.3-0.1-0.4c-2.4-16.5-15.8-29.9-33.2-31.4c-15.9-1.3-30.1-8.2-40.8-18.5
		c-44.5-42.8-10.4-119.5,52-114.1c20.8,1.8,38.6,13,49.5,29.1c8.2,12.2,12.4,27.1,11.1,42.9c-2.3,48.7,67.2,54.7,73.2,6.3
		c2.1-21.9-16.4-40.9-38-39.9c-33.3-5.2-57.7-34.7-56.1-68.7c3.8-20.8-11.6-41.3-33-43c-20.5-1.8-38.5,13.7-39.8,34.1
		c-3.2,36.7-35.6,63.9-72.3,60.5c-20.2-1.7-38,13.2-39.8,33.5c-2.1,22,16.5,41,38.1,39.9c34.7,5.2,59.5,36.9,56.2,71.8c0,0,0,0,0,0
		c0,0.1,0,0.2,0,0.2c-3.2,36.7-35.6,63.9-72.3,60.5c-20.2-1.7-38,13.2-39.8,33.5c-2.1,22,16.5,41,38.1,39.9
		c34.7,5.2,59.5,36.9,56.2,71.8c-1.5,20,13.4,37.5,33.5,39.3c19,1.6,35.8-11.4,39.3-29.7c0.5-2.4,0.7-5,0.6-7.5
		C1385.2,405.2,1370.9,389.5,1351.9,387.8z"/>
	<path class="st1" d="M1256.2,244.2c45,0.1,52-62.8,8.3-72.8c0,0,0,0,0,0c-2.6-0.5-5.4-0.8-8.1-0.7c0,0,0,0,0,0
		c-19-2.8-35.1-13.5-45.2-28.4c-8.4-12.3-12.7-27.6-11.2-43.6c0-0.4,0.1-0.9,0.1-1.3c3.7-35,34.3-61.4,69.8-59.4
		c1.4,0.2,2.8,0.3,4.1,0.4c45,0.1,52-62.8,8.3-72.8c0,0,0,0,0,0c-2.6-0.5-5.4-0.8-8.1-0.7c0,0,0,0,0,0c-19-2.8-35.1-13.5-45.2-28.4
		c-8.4-12.3-12.7-27.6-11.2-43.6c1.7-20.2-13.2-38-33.5-39.8c-20.2-1.7-38,13.2-39.8,33.4c-1.7,20.2,13.2,38,33.4,39.8
		c16,1.3,30.3,8.2,41,18.6c30.1,28.5,25.5,80.2-9.2,102.8c-46,31-108.1-5.1-103.4-60.9c2.2-48.7-67.2-54.6-73.2-6.2
		c-1.7,19.5,12.2,36.8,31.3,39.5c16.2,1,31.4,7.8,42.4,18.6c14.2,13.8,21.8,32.9,20,53.6c-1.7,19.6,12.3,37,31.6,39.6
		c0.6,0.1,1.3,0.2,1.9,0.2c16,1.3,30.3,8.2,41,18.6c30.1,28.5,25.5,80.2-9.2,102.8c-46,31-108.1-5.1-103.4-60.9
		c2.2-48.7-67.2-54.6-73.2-6.2c-1.7,19.5,12.2,36.8,31.3,39.5c16.2,1,31.4,7.8,42.4,18.6c14.2,13.8,21.8,32.9,20,53.6
		c-1.7,20.2,13.2,38,33.4,39.8c20.2,1.7,38-13.2,39.8-33.5c3-35.6,34-62.7,69.9-60.7C1253.4,244,1254.8,244.1,1256.2,244.2z"/>
	<path class="st1" d="M1046.1,255.8c-15.9-1.3-30.1-8.2-40.8-18.5c-44.5-42.8-10.4-119.5,52-114.1c20.8,1.8,38.6,13,49.5,29.1
		c8.2,12.2,12.4,27.1,11.1,42.9c-2.3,48.7,67.2,54.7,73.2,6.3c2.1-21.9-16.4-40.9-38-39.9c-33.3-5.2-57.7-34.7-56.1-68.7
		c1.7-9.3-0.4-18.5-5.2-26c-0.1-0.1-0.1-0.2-0.2-0.3c-0.2-0.4-0.5-0.8-0.8-1.1c-0.1-0.2-0.2-0.3-0.3-0.4c-0.2-0.3-0.5-0.6-0.7-0.9
		c-0.1-0.2-0.3-0.4-0.4-0.5c-0.4-0.5-0.9-1.1-1.3-1.6c-0.1-0.2-0.3-0.3-0.4-0.5c-0.3-0.3-0.6-0.6-0.8-0.9c-0.1-0.1-0.2-0.2-0.3-0.3
		c-0.3-0.3-0.7-0.6-1-1c-0.1-0.1-0.1-0.1-0.2-0.2c-4.9-4.4-11-7.6-17.9-8.8c0,0-0.1,0-0.1,0c-0.5-0.1-1-0.2-1.5-0.2
		c-0.6-0.1-1.3-0.2-1.9-0.2c-15.9-1.3-30.1-8.2-40.8-18.5c-44.5-42.8-10.4-119.5,52-114.1c20.8,1.8,38.6,13,49.5,29.1
		c8.2,12.2,12.4,27.1,11.1,42.9c-2.3,48.7,67.2,54.7,73.2,6.3c2.1-21.9-16.4-40.9-38-39.9c-33.3-5.2-57.7-34.7-56.1-68.7
		c3.8-20.8-11.6-41.3-33-43c-20.5-1.8-38.5,13.7-39.8,34.1c-3.2,36.7-35.6,63.9-72.3,60.5c-20.2-1.7-38,13.2-39.8,33.5
		c-2.1,22,16.5,41,38.1,39.9c34.7,5.2,59.4,36.9,56.2,71.8c0,0.4,0,0.7-0.1,1.1c-3.6,36.2-35.8,62.9-72.2,59.6
		c-20.2-1.7-38,13.2-39.8,33.5c-2.1,22,16.5,41,38.1,39.9c34.7,5.2,59.4,36.9,56.2,71.8c-1.5,20,13.4,37.5,33.5,39.3
		c19,1.6,35.8-11.4,39.3-29.7c0.5-2.4,0.7-5,0.6-7.5C1079.4,273.2,1065,257.5,1046.1,255.8z"/>
	<path class="st1" d="M944.6,112.2c45,0.1,52-62.8,8.3-72.8c0,0,0,0,0,0c-2.6-0.5-5.4-0.8-8.1-0.7c0,0,0,0,0,0
		c-19-2.8-35.1-13.5-45.2-28.4c-8.4-12.3-12.7-27.6-11.2-43.6c1.7-20.2-13.2-38-33.5-39.8c-20.2-1.7-38,13.2-39.8,33.4
		c-1.7,20.2,13.2,38,33.4,39.8c16,1.3,30.3,8.2,41,18.6c30.1,28.5,25.5,80.2-9.2,102.8c-46,31-108.1-5.1-103.4-60.9
		c2.2-48.7-67.2-54.6-73.2-6.2C701.9,74,715.8,91.3,734.9,94c16.2,1,31.4,7.8,42.4,18.6c14.2,13.8,21.8,32.9,20,53.6
		c-1.7,20.2,13.2,38,33.4,39.8c20.2,1.7,38-13.2,39.8-33.5c3-35.6,34-62.7,69.9-60.7C941.8,112,943.2,112.1,944.6,112.2z"/>
	<path class="st1" d="M734.5,123.8c-15.9-1.3-30.1-8.2-40.8-18.5c-44.5-42.8-10.4-119.5,52-114.1c20.8,1.8,38.6,13,49.5,29.1
		c8.2,12.2,12.4,27.1,11.1,42.9c-2.3,48.7,67.2,54.7,73.2,6.3c2.1-21.9-16.4-40.9-38-39.9C808.2,24.6,783.7-5,785.3-39
		c3.8-20.8-11.6-41.3-33-43c-20.5-1.8-38.5,13.7-39.8,34.1c-3.2,36.7-35.6,63.9-72.3,60.5c-20.2-1.7-38,13.2-39.8,33.5
		c-2.1,22,16.5,41,38.1,39.9c34.7,5.2,59.4,36.9,56.2,71.8c-1.5,20,13.4,37.5,33.5,39.3c19,1.6,35.8-11.4,39.3-29.7
		c0.5-2.4,0.7-5,0.6-7.5C767.8,141.3,753.4,125.5,734.5,123.8z"/>
</g>
</svg>
