<?xml version="1.0" encoding="utf-8"?>
<!-- Generator: Adobe Illustrator 25.4.1, SVG Export Plug-In . SVG Version: 6.00 Build 0)  -->
<svg version="1.1" id="Capa_1" xmlns="http://www.w3.org/2000/svg" xmlns:xlink="http://www.w3.org/1999/xlink" x="0px" y="0px"
	 viewBox="0 0 385 12" style="enable-background:new 0 0 385 12;" xml:space="preserve">
<style type="text/css">
	.st0{fill:#C4C4C4;filter:url(#Adobe_OpacityMaskFilter);}
	.st1{mask:url(#mask0_00000023997300972931607270000017338187504037394832_);}
	.st2{fill:#795DF4;}
</style>
<defs>
	<filter id="Adobe_OpacityMaskFilter" filterUnits="userSpaceOnUse" x="3.5" y="-3.7" width="375.4" height="59.1">
		<feColorMatrix  type="matrix" values="1 0 0 0 0  0 1 0 0 0  0 0 1 0 0  0 0 0 1 0"/>
	</filter>
</defs>
<mask maskUnits="userSpaceOnUse" x="3.5" y="-3.7" width="375.4" height="59.1" id="mask0_00000023997300972931607270000017338187504037394832_">
	<rect class="st0" width="385" height="12"/>
</mask>
<g class="st1">
	<path class="st2" d="M57.8-2.5l0.9-0.2l-1.8-0.2l0.9-0.2c0.9,0,2,0.3,2.6,0.1c0.1-0.1-0.9-0.2-1.1-0.3c-0.2-0.1-0.4-0.2-0.5-0.3
		c0.5,0,1,0,1.5,0.1c0.7,0.1,1.4,0.1,2.1,0.1c1.3,0,2.5,0,3.9,0l-0.5-0.3l1.8,0.1c0.2,0,0.4,0,0.6,0c1.5,0.2,2.2,0.1,2.9,0
		c0.2,0,0.3-0.1,0.5-0.1c2.1,0.1,3.9,0.4,5.8,0.6c0.4,0,0.7,0.1,1,0.2c0.6,0.1,1.4,0.2,2.1,0.3c0.7,0.1,1.4,0.1,2.1,0.1
		c1.4,0,3,0.1,4.6,0.2c0.5,0.1,1,0.1,1.4,0.1c0.4,0,0.9,0,1.2,0L90.9-2C91.4-2,92-2.1,92.7-2.1c0.7,0,1.4,0,2.2,0.1
		c0.8,0.1,1.7,0.1,2.6,0.2c1.8,0.1,3.6,0.2,5.2,0.3c2.5,0.1,4.9,0.1,7.3,0.3c1.6,0.1,3.1,0.1,4.5,0.1c1.8,0,3.6,0.1,5.6,0.3
		c-0.1,0.2-0.9,0.1-1.5,0.1c-1.8,0-3.7-0.1-5.6-0.1c-0.9,0-1.7,0-2.5,0c-1.3,0-2.8,0-4.2-0.1c-2.3-0.1-4.6-0.1-6.7-0.1
		c-0.2,0-0.3,0-0.5,0c0,0,0,0,0,0c0,0,0.1,0,0.1,0.1c0.1,0,0.1,0,0.2,0.1c0.1,0,0.2,0,0.3,0c0.9,0.1,1.8,0.2,2.6,0.2
		c0,0,0.1,0,0.1,0c0,0,0.1,0,0.1,0c1.8,0.2,3.3,0.2,4.7,0.2c2.3,0.1,4.6,0.1,6.7,0.1c0.3,0,0.7,0,1,0c2.2,0.1,4.3,0.1,6.1,0
		c0.8,0,1.5-0.1,2.3-0.1c0.5,0,0.9,0,1.3-0.1c0.3-0.1,0.6-0.1,0.7-0.2c0.3,0,0.7,0.1,1,0.1c0.2,0,0.4,0,0.6,0c0.2,0,0.2,0,0.3-0.1
		c0.1-0.1-0.4-0.2-0.8-0.2c0.2,0,0.5,0,0.8,0c1.7,0,3.6,0,5.5,0.1c1.5,0.1,2.7,0,4.3,0.2c0.2,0,0.3,0,0.5,0c0.5,0,1-0.1,1.7,0
		c0.6,0,1.3,0.1,2,0.2c0.8-0.2,2.6,0,3.9,0.1c0.4,0.1-0.1,0.1-0.1,0.1c0,0,0,0-0.2,0c-1.3,0.2-3.1,0.2-5.1,0.1c-0.4,0-0.7,0-1.1,0
		c-0.5,0-1.1,0-1.7,0c-0.7,0-1.3,0-1.8,0c-0.3,0-0.6,0-0.8,0.1c-0.2,0-0.3,0.1-0.3,0.1c0.2,0,0.4,0.1,0.7,0.1
		c1.2,0.2,2.5,0.2,3.5,0.2c1.7-0.1,3.8,0,5.6,0c1.2,0,2.6,0,4,0.1c0,0,0,0.1,0,0.1c0.2,0,0.3,0,0.5,0.1c0,0,0,0,0,0
		c-0.1,0-0.2-0.1-0.3-0.1l-0.4-0.1c0.3,0,0.5-0.1,0.8,0c0.6,0,1.2,0.1,1.7,0.1c0.5,0,1,0,1.3-0.1c0.6-0.1,1.4-0.1,2.3-0.1
		c0.7,0,1.3,0,1.9-0.1c0,0,0-0.1,0.3-0.1c-0.3,0-0.6-0.1-0.9-0.1c-1.2-0.1-2.5-0.1-3.7-0.2c-0.5,0-0.9,0-1.3,0c-1.1,0-2.3,0-3.6-0.1
		c0,0-0.3,0-0.4,0c0.4-0.1,1.6,0,2.1-0.1c0.3,0,0.8,0,0.8,0c0,0,0-0.1,0-0.1c0,0,0.1,0,0.2-0.1c0.1,0,0.2,0,0.4,0c0.1,0,0.3,0,0.5,0
		c1.4,0.1,2.7,0.1,3.9,0.1c0.4,0,0.9,0,1.4,0c0.3,0,0.5,0,0.7,0c1.1-0.1,2.5-0.1,4,0c0.8,0,1.5,0,2.1,0c0.4,0,0.6,0.1,0.9,0.1
		l1.3,0.1l-1.7,0.1c0.4,0.2,0.7,0.3,1.3,0.3c0.9,0,1.7,0,2.6,0c0.6,0,1.1-0.1,1.9,0c0.1,0,0.3,0,0.4,0c1-0.1,2.1-0.1,3.4-0.1
		c0.7-0.2,1.8,0,2.8,0.1c0.3-0.1-0.3-0.2-0.6-0.2c0.9,0,1.8,0,2.7,0c0.3,0,0.6,0,0.9,0c0.3,0,0.7,0.1,1,0.1c0.2,0,0.3,0.1,0.5,0.1
		c0.2,0,0.3,0,0.4,0c0.5,0,1.2,0,1.6-0.1c0.1,0,0.3,0,0.6,0c0.2,0,0.5,0,0.7,0.1c-0.2,0-0.4,0-0.6,0.1c-0.6,0.1-0.4,0.2,0.4,0.4
		c1.2,0,2.3,0,3.4,0c0.6,0,1.3,0,2.1,0c0.8,0.1,1.6,0.2,2.3,0.3c0.3,0.1,0.6,0.1,0.9,0.1c0.3,0,0.5,0,0.7,0c0.1,0,0.1-0.1,0.1-0.1
		l-0.8-0.1c0,0,0-0.1,0-0.1l1.1,0c0.6,0,1.2,0,1.7,0c0.8,0,1.7,0,2.7,0c0.9,0.1,1.8,0.1,2.6,0.1c0.8,0,1.4-0.1,2.2-0.1
		c0.6,0,1.3,0,1.9,0c1.2,0.1,2.3,0.1,3.2,0c1,0.4,1.6,0.4,2.5,0.3l0.5,0l0.1,0.1l0.3,0c0.7,0,1.3,0,2,0c0.9,0,2,0.1,3,0.3
		c0.2,0,0.4,0.1,0.6,0.2c0.2,0.1,0.5,0.3,0.8,0.4c-0.3,0.1-0.6,0.2-0.8,0.3c0,0,0,0,0,0.1c0,0,0.1,0,0.2,0.1c0.1,0,0.2,0,0.3,0.1
		c0.1,0,0.2,0,0.3,0c0.2,0,0.4,0,0.6,0c1,0,1.9,0,2.8,0c0.3,0,0.8,0,1.3,0s1,0.1,1.5,0.2c1.2-0.1,2.5,0,3.9,0
		c1.5-0.1,3.4,0.1,4.8-0.1c0,0.1,0.1,0.2,0.3,0.2c0.3,0.1,0.7,0.2,1.1,0.2l3,0.1c0.1,0.1,0.3,0.1,0.4,0.2c0.1,0.1,0.3,0.1,0.6,0.1
		c0.2,0,0.5,0.1,0.7,0.1c0.6,0,1.1,0,1.8,0.1c-1.1,0.1-2.6,0.1-4.2,0c-1.5-0.1-2.9-0.2-4.3-0.1c-0.4,0-1,0-1.2,0.1
		c-0.3,0.2-1.1,0.1-2,0.1c-0.7,0-1.4,0-1.9,0c-0.5,0-1,0.1-1.2,0.2c-0.1,0.1,0.1,0.2,0.7,0.3l2.7,0.2c0.4,0,0.8-0.1,1.1-0.1
		c0.6-0.1,1.3-0.1,2.1,0c0.8,0,1.7,0.1,2.6,0.2c0.4,0.1,0.9,0.1,1.2,0.1c0.3,0,0.5-0.1,0.8-0.1c0,0,0.1-0.1,0.1-0.1
		c0.2,0,0.3,0,0.5,0.1c1.3,0.3,2.3,0.3,3.3,0.2c0.3,0,0.4-0.1,0.7-0.1c0.3,0,0.3-0.1,0.6-0.1c1.8,0.1,2.4-0.2,3.9-0.2
		c0.1,0,0.1,0,0.1-0.1c0,0,0-0.1-0.1-0.1c-0.1,0-0.2,0-0.4-0.1c-0.1,0-0.3,0-0.4,0c-0.7,0-1.3,0-1.8,0c-0.3,0-0.6,0-1,0.1l-1.6-0.5
		c1.5,0,2.9,0,4.2,0c0.3,0,0.8,0,1.2,0l3,0c0.6,0,1.1-0.1,2,0.1c0,0,0.6,0,0.7,0c0.1,0,0.8-0.2,1.2-0.3c0.5,0,1.1,0.1,1.4,0.1
		c0.5-0.1,0.9-0.1,1.3-0.2l1.8,0.1c0,0.1-0.1,0.2-0.2,0.3c-0.1,0.1-0.1,0.2,0,0.3c0.1,0.1,0.4,0.3,0.8,0.4l1.8,0.7
		c0.3,0,0.6,0.1,0.9,0.1c0.3,0,0.5,0,0.7,0c0.8-0.1,1.6-0.1,2.4-0.2c1,0.1,0.7,0.3,1.4,0.5l2.3,0.3c0.4,0.3,0.7,0.5-0.4,0.6
		c-0.2,0-0.1,0.1-0.3,0.2c0.8,0.2,1.7,0.3,2.6,0.4c0.3,0.1,0.6,0.2,0.8,0.3c0.2,0.1,0.7,0.3,1.3,0.4c0.6,0.1,1.3,0.2,1.9,0.2
		c1.1,0.1,2.1,0.2,3.2,0.3c0.4,0.1,0.7,0.1,1.1,0.1c0.4,0,0.7,0,1,0c1,0,1.9-0.1,2.5-0.2c0.6-0.1,1.5-0.2,2.5-0.2
		c1.7,0.2,2.1,0.5,3.1,0.8l-1.8,0c-0.1,0.1,0.1,0.3-0.7,0.2c-0.7,0-0.4,0.1-0.1,0.2c0.1,0.1,0.3,0.1,0.5,0.2c0.2,0,0.5,0.1,0.7,0.1
		l1.5,0.1c0.5,0.1,1.1,0.1,1.5,0.1c0.5,0,0.8-0.1,1-0.1c0.3-0.1,0.6-0.1,1.1-0.1c0.6-0.1,1-0.1,1.4-0.2l2.2,0.2
		c0.1-0.1,0.4-0.2,0.8-0.2c0.5,0,1,0,1.7,0l1.5,0.1c1.6,0.1,2,0.1,2.5-0.2l-2-0.5c0.3-0.1,0.6-0.3,0.8-0.4c-0.5-0.2-1.1-0.3-1.9-0.5
		c-0.7-0.1-1.4-0.3-2.2-0.4c-0.8-0.1-1.6-0.3-2.6-0.4c-0.2-0.1-0.4-0.1-0.7-0.2c-0.3-0.1-0.7-0.2-1-0.2c0.1-0.1,0.1-0.2,0-0.3
		c0.6,0,1.2,0.1,1.8,0.2c0.6,0.1,1.1,0.2,1.6,0.3c0.1,0,0.2,0,0.3,0.1c0.1,0,0.2,0,0.3,0c1.1,0.1,1.6,0.2,2.1,0.4
		c0.4,0.1,0.8,0.2,1.3,0.3c0.9,0.1,1.9,0.3,2.8,0.4c0.3,0,0.6,0.1,0.9,0.1c0.9,0.1,1.9,0.2,2.8,0.3c0.3,0,0.6,0.1,0.8,0.1
		c0.2,0.1,0.5,0.1,0.6,0.2c-0.2,0.1-0.3,0.2-0.4,0.3c0,0.1,0.6,0.2,0.9,0.3c0.3,0.1-0.3,0.1-0.5,0.1c-0.9,0-1,0.1-0.5,0.3
		c0.2,0.1,0.3,0.1,0.3,0.2c0,0.1,0,0.1,0,0.2c-0.1,0.2-0.5,0.4-0.7,0.6c0.4,0.1,1.1,0.3,1.1,0.4c0,0,0.1,0.1,0.2,0.1
		c0.1,0,0.2,0.1,0.4,0.1c0.4,0.1,0.8,0.2,1.1,0.2c0.3,0.1,0.5,0.2,0.7,0.3c0,0,0.2,0.1,0.3,0.1c0.2,0,0.3,0.1,0.5,0.1
		c0.2,0,0.4,0,0.5,0c0.1,0,0.2-0.1,0.2-0.1c0-0.1,0-0.2-0.1-0.3c0-0.1,0.1-0.1-0.1-0.2c0.6,0,1.3,0.1,2,0.2c0.6,0.1,1.2,0.2,1.7,0.4
		c0.5,0.1,0.9,0.3,1.5,0.5c-0.1,0.2-0.1,0.2,1,0.5l6.1,0.2l1.3,0.2c1.2,0.2,1.5,0.2,2.2,0.1l0.5-0.1c1,0.1,2.2,0.3,2.9,0
		c0.2,0.2,0.4,0.2,0.3,0.2c-0.3,0.2-0.9,0.4-1.6,0.6c-0.2,0-0.3,0.1-0.5,0.1c-0.7,0.2-0.9,0.5-0.5,0.8c0.2,0.1,0.5,0.3,0.9,0.4
		c-0.6,0.2-1.3,0.4-2.2,0.5c-0.8,0.1-1.4,0.2-1.9,0.4c-0.4,0.2-1.1,0.3-1.9,0.4c-0.4,0-0.7,0.1-0.9,0.2c0,0.2,0.1,0.5,0.3,0.8
		c0.1,0.1,0.2,0.2,0.4,0.3c0.2,0.1,0.5,0.2,0.9,0.2c0,0,0.2,0.1,0.3,0.1c0.1,0.3-0.2,0.5-0.7,0.7c-0.1,0.1-0.3,0.1-0.5,0.1
		c-0.3,0-0.6,0-1,0c-0.8,0-1.5,0-2.2-0.1c-0.8,0-1.5,0-2,0.1c-0.5,0.1-0.9,0.2-1,0.3c0,0,0,0.1-0.1,0.1c0,0,0,0,0,0.1l1.7,0.5
		l-1.9,0.2c-0.1,0.2,0.8,0.3,1.3,0.4l-0.3,0.1c-0.4,0-0.9,0-1.3-0.1l-0.4-0.1l-0.1,0.1c-0.3,0.1-1.3,0-1.7,0.1
		c-0.4,0.1-0.1,0.2,0.5,0.3c0.4,0.1,0.8,0.1,1.3,0.2c0.4,0,0.9,0.1,1.2,0.1c0.2,0,0.4,0,0.5-0.1c0.8-0.1,1.7-0.3,2.6-0.4
		c0.7-0.1,1.6-0.1,2.7-0.1c0.3,0,0.7,0,1,0.1c0.4,0,0.7,0.1,1,0.2l0.5,0c0,0,0.3,0.1,0.3,0.1c-0.2,0.2,0,0.5,0.7,0.8l-0.6,0
		c-0.8,0-0.3,0.1-0.4,0.2c-0.6,0-1.3-0.1-1.6,0l-0.4,0l0.2,0l0.2,0l0.8,0.2c-0.4,0-0.6,0.1-0.9,0.1c-0.2,0-0.3,0-0.4,0.1
		s-0.1,0.1-0.1,0.1c0,0.1-0.1,0.1-0.3,0.2s-0.4,0.1-0.8,0.1c-0.4,0-0.6,0.1-0.8,0.1l1,0.5c0,0-0.5-0.1-0.2,0l0-0.1l0.6,0.1
		c0.4,0.1,0.7,0.1,1,0.1c0.2-0.1,0.2,0,0.3,0c0,0.1-0.3,0.1-0.5,0.2c-0.3,0-0.6,0.1-0.9,0.1c0.6,0.3,0.6,0.3-0.2,0.4
		c-0.9,0.1-0.6,0.2-1.3,0.2c-0.7,0,0.1,0.2,0.6,0.3c0.4,0,0.7,0.1,1.1,0.1c0.3,0.1,0.7,0.1,0.9,0.2l-0.1,0.2c-0.2,0-0.4,0-0.6-0.1
		c-0.7-0.1-1.3-0.3-2-0.2l0.3,0.2l-2.2-0.1c0.1,0.1,0.4,0.3,0.9,0.4c-0.1,0.1-0.1,0.2-0.1,0.3c0,0.1-0.2,0-0.4,0
		c-0.5,0-0.9,0.1-1.2,0.1c-0.3,0.1-0.4,0.2-0.4,0.3c-0.1,0.1,0.7,0.3,1.2,0.3c1.2,0,2.5,0.1,3.8,0.2c0.8,0,0.9-0.2,2.2-0.1
		c0,0.1-0.1,0.2-0.5,0.3c-0.3,0.1-0.8,0.1-1.4,0.1c0.3,0.3,2.1,0.3,2.2,0.6c-0.4,0-0.9-0.1-1.4-0.1c-0.5-0.1-0.9-0.1-1.2-0.2
		c-0.1,0-0.2,0-0.3-0.1c-0.1,0-0.2,0-0.3,0c-0.1,0-0.2,0-0.3,0s-0.2,0-0.2,0c0.2,0.1,0.5,0.2,0.8,0.3c0.3,0.1,0.4,0.1,0.6,0.2
		c1.7,0.2,2.5,0.6,3.9,0.8c0.4,0,0.4,0.2,0.1,0.2c-0.3,0-0.6,0-0.8,0c-0.2,0-0.4,0.1-0.4,0.1c-0.2,0.1-0.5,0.1-0.9,0.1
		c1.5,0.4,3.3,0.7,5.1,1c0.4,0.1,0.7,0.1,1.1,0.1c1.1,0,2.2,0,3.3,0.1c0.4,0,0.8,0,1.1,0c1.1,0,1.9,0.1,2.7,0.3l1.3,0.4
		c0,0.1-0.3,0.2-0.4,0.3l1,0.2l7.7-0.5l1.5,0.5l2.2,0c0.2,0,0.3,0,0.5,0.1c0.4,0.2,0.8,0.3,1.3,0.5s1.4,0.2,2,0.3s1.2,0.2,2,0.3
		c0.1,0.1,0,0.3-0.2,0.4c-0.1,0.1-0.5,0.2-0.5,0.3c0,0.1-0.1,0.2-0.4,0.3c-0.3,0.1-0.7,0.1-1.2,0.1c-1.4,0.2-3.1,0.4-5,0.5
		c-0.2,0-0.3,0-0.4,0c-0.1,0-0.2,0.1-0.2,0.1c0,0.1-0.1,0.2-0.4,0.3c-0.2,0.1-0.6,0.1-1.1,0.1c-0.1,0-0.2,0-0.3,0
		c-0.2,0-0.3,0-0.4,0.1c-0.1,0-0.1,0.1,0,0.1c0.1,0,0.2,0.1,0.3,0.2c0.2,0,0.4,0.1,0.6,0.1c0.3,0.1,0.7,0.1,1,0.2c0,0-0.4,0-0.3,0.1
		c0.1,0.1,0.2,0.2,0.1,0.3c-0.1,0.1-0.3,0.1-0.5,0.2l1.8,0.8c1.1,0.1,2.2,0.3,3.1,0.5c0,0,0,0.1-0.1,0.1c-0.1,0-0.2,0-0.4,0
		c-0.4,0-0.9,0-1.4,0.1c-0.3,0-0.5,0-0.7,0.1c-0.2,0-0.3,0.1-0.3,0.2l1.1,0.3c-0.3,0.1-0.6,0.1-0.8,0.1c0.1,0.1,0.4,0.2,0.7,0.3
		c0.3,0.1,0.7,0.2,1.1,0.2c0.1,0,0.2,0,0.3,0c0.1,0,0.2,0,0.3,0c0.8-0.1,1.8,0.1,2.8,0.2c1,0.2,1.5,0.3,2.2,0.4l1.3,0
		c0.3,0.1,0.6,0.1,0.9,0.2c0.2,0.1,0.4,0.2,0.5,0.2c-0.1,0.1-0.7,0.1-1.1,0.1c-0.9,0.1-2.1,0.1-3.4,0c-0.3,0-0.6,0-0.9,0
		c-0.7,0-1.3,0-1.9,0.1c-0.4,0-0.8,0.1-1.1,0.1c-0.1,0.2,1.4,0.3,0.5,0.4c0.3,0,0.4,0.1,0.5,0.1c0.9,0.1,1.9,0.2,2.7,0.1
		c1.5,0,3.3,0,5.1,0.2c2,0.2,3.8,0.2,5.5,0.2c0.6,0,1.3,0,2,0.1c0.8,0.1,1.7,0.1,2.5,0.2c0.3,0,0.5,0,0.8,0c0.3,0,0.6,0.1,0.9,0.1
		c0,0-0.3,0.1-0.2,0.1c0.8,0.3,1.1,0.6,2.4,0.9c0.9,0.1,1.8,0.2,2.4,0.1c0.6-0.1,0.4-0.3-0.8-0.6c0.2,0,0.5,0,0.8,0
		c0.3,0,0.6,0.1,0.8,0.1l1,0.3l0.9,0.3c-0.1,0.1-0.1,0.2-0.2,0.3c-0.1,0.1,0,0.2,0.3,0.4c0.2,0.1,0.3,0.2,0.5,0.2
		c0.5,0.3,0.7,0.6,0.5,0.8c-0.5,0.3-1.1,0.7-2,1c-0.9,0.3-1.4,0.6-2.1,0.9c-0.4,0.1-0.8,0.3-1.3,0.4c-1,0.2-2.1,0.5-3.1,0.7
		c-1,0.2-2.1,0.4-3.2,0.6c-1.6,0.2-3.4,0.5-5.3,0.6c-1.2,0.2-2.4,0.3-3.5,0.5c-1.3,0.2-2.8,0.3-4.5,0.4c-1.5,0.1-2.8,0.2-4,0.4
		c-0.1,0-0.2,0-0.3,0.1c-0.2,0.2-0.8,0.3-1.7,0.4c0.1,0.1,0.1,0.1,0.2,0.2c0.1,0.1,0.1,0.1,0.1,0.2c-0.1,0.1-0.2,0.1-0.5,0.1
		c-0.7,0-1.3,0.1-1.7,0.2c-0.2,0-0.3,0.1-0.3,0.1c0,0.1,0,0.1,0.1,0.2c0.1,0.1,0.1,0.1,0,0.2c-0.1,0-0.2,0.1-0.5,0.1
		c-0.6,0.1-1.2,0.1-1.9,0.1c-1.4,0.1-3.1,0.1-4.8,0c-0.2,0-0.4,0-0.6,0c-1.3-0.1-2.4-0.1-3.4,0c-1.1,0-2.2,0-3.4,0
		c-1.7,0-3.2,0-4.6,0.1c-1.6-0.1-2.4,0.1-3.8,0.1c-1.2,0-2.4,0.1-3.5,0.1c-1.7,0.1-3.5,0.2-5.2,0.3c-1.6,0-3.1,0.1-4.4,0.3
		c-0.5,0.1-1.4,0-1.8,0.1c-0.3,0.1-1,0.1-1.6,0.2l-1.8,0.1c-0.3,0-0.6,0-1,0c-1.7,0-2.8,0.2-4.4,0.2l-0.2,0
		c-2.7,0.3-5.9,0.4-9.3,0.4c-2,0.1-4.2,0.1-6.3,0.1c-0.5,0.1-1.7,0-2.4,0.1c-0.6,0.1-1.7,0-2.5,0.1c-0.8,0-1.6,0.1-2.5,0.1
		c-0.8,0-1.4,0-1.9,0.1c-1.1,0.1-2.4,0.2-3.8,0.3c-2,0-3.8,0.1-5.8,0.1c0,0.1-0.1,0.2-0.4,0.3c-0.3,0.1-0.6,0.1-1.1,0.1
		c-2.1,0-4.1,0.1-6.2,0.2l-0.6,0l-6.4,0.1c-1.7,0-3.4,0-5.2,0c-0.7-0.1-0.7,0.1-1.1,0c-0.1-0.1-0.3-0.1-0.5-0.1l-0.1,0.1l-7.4,0.1
		c-2.9,0.1-5.9,0.1-9.1,0.1c-0.7,0-1.4,0-2.1,0.1c-0.6,0-1.2,0-1.8,0c-0.9,0-1.7,0-2.5,0c-2.2,0-4.4,0-6.8,0c-2.4,0-4.1,0-6.2,0
		c-1.4,0-2.8,0-4.3,0c-0.7,0-1.6-0.1-2.3-0.1c-0.7,0-1,0-1.1,0c-0.3,0.1-1.1,0-1.7,0c-1.2,0-1.4-0.1-1.8-0.4l1.5-0.1
		c0.4,0,0.8,0,1.4,0s1.1,0.1,1.6,0.2c0.2,0,0.4,0.1,0.6,0.1c0.2,0,0.4,0,0.6,0c1.5,0,3.1-0.1,4.5-0.1l0.2,0l0-0.3
		c-0.2,0-0.4-0.1-0.6-0.1l-7.4-0.2c-1.7,0-3.5-0.2-5.1-0.2c-1.7,0-2.6-0.1-3.9-0.1c-0.5,0-1.1-0.1-1.7-0.1c0,0,0.1-0.1,0.1-0.1
		c0,0,0.1-0.1-0.2-0.2c-0.3-0.1-0.6-0.1-1-0.2c-0.3,0-0.7,0-1,0c-1.5,0-3.2-0.2-4.8-0.5l-0.5,0.2c-2.3-0.1-4.7-0.2-7.2-0.3
		c-0.5,0-1-0.1-1.5-0.1c-0.5-0.1-1-0.2-1.6-0.3c-0.6-0.1-1.1-0.1-1.7-0.1c0.1,0,0.3-0.1,0.6-0.1c0.2,0,0.4,0,0.5-0.1
		c0.1,0,0.1-0.1,0-0.2c-0.2-0.1-0.3-0.2,0.1-0.2c0.4,0,0.6-0.1,0.7-0.1c0.1-0.1,0.1-0.2,0-0.3c-0.1-0.1-0.1-0.1-0.1-0.2l-0.2,0
		c-0.5-0.2-1.6-0.3-2.3-0.5c-0.4,0-0.7-0.1-1-0.1c-0.8,0-1.6-0.1-2.5-0.1c-0.4,0-0.8-0.1-1.3-0.1c-0.6-0.1-0.7-0.1-1-0.4
		c0.5,0,1,0,1.2-0.1c0.2-0.1,0.3-0.2,0.1-0.3c-0.4-0.3-0.9-0.6-2.9-0.8c0.7,0,1.3,0,1.9-0.1c0.2,0,0.3,0,0.4-0.1
		c0.1,0,0.1-0.1,0-0.1c-0.1,0-0.2-0.1-0.4-0.1c-0.2,0-0.4-0.1-0.6-0.1c-1.1-0.2-2.2-0.3-3.2-0.3c-0.9,0-1.7,0-2.7,0l-1.2-0.1
		c0,0-0.2-0.1-0.1-0.1c0.3-0.2,0.6-0.3,1-0.5c-0.6-0.1-1-0.2-1.4-0.3c-0.4-0.1-0.6-0.3-0.6-0.4c0,0,0-0.1,0-0.1s0.1,0,0.2-0.1
		c0.3,0,0.6-0.1,0.7-0.1c0.2-0.1,0.2-0.1,0.2-0.2l-0.9-0.3c-2.8-0.2-5.6-0.4-8.2-0.5l-2.4-0.1c-0.3-0.1-0.2-0.1,0.1-0.1
		c0.3,0,1,0,1.6,0c0.5,0,0.9,0,1.2,0c0.3,0,0.5-0.1,0.6-0.2l-0.8-0.4c0-0.1,0.1-0.2,0.5-0.2c0.3,0,0.5,0,0.6-0.1
		c0.1-0.1,0.1-0.1,0-0.2c0-0.1,0-0.1,0.1-0.2c0.6,0,1.3,0,1.9,0c0.3,0,0.5,0,0.7-0.1c0.2,0,0.3-0.1,0.3-0.1c0-0.1,0-0.1-0.2-0.2
		c-0.1-0.1-0.3-0.1-0.5-0.2c-0.9-0.1-1.8-0.1-2.3,0c-0.2,0.1-0.5,0.1-0.9,0.1c-0.4,0-0.9,0-1.4-0.1c-0.5-0.1-1.1-0.1-1.5-0.1
		c-0.4,0-0.8,0.1-0.9,0.2c-0.6,0-1.1-0.1-1.5-0.1c-0.6,0-1.1-0.1-1.6,0c-0.7,0-1.5,0-2.3,0c-2.4-0.1-4.7-0.1-7-0.2
		c-0.6,0-1.1,0-1.7,0c-0.6,0-1.1,0-1.8-0.1c-0.1,0-0.3,0-0.4,0c-0.1,0-0.3,0-0.3,0c-1.3,0.1-2.9,0.1-4.5,0c-2.3,0-4.7-0.1-7-0.1
		c-0.7,0-1.3,0-1.9,0.1c-0.5,0-0.9,0-1.4,0c-0.4,0-0.7,0-0.7,0.1c0.1,0.1-0.5,0-0.8,0c-1.1-0.1-2.3-0.1-3.4-0.2
		c-1.1-0.1-2.3-0.2-3.3-0.2c-0.7,0-1.5,0-2.5-0.1c0-0.1,0.1-0.1,0.3-0.2c-0.8-0.2-1.7-0.3-2.6-0.4c-0.9-0.1-1.9-0.2-2.7-0.2
		l-1.2-0.3c-0.3,0-0.6-0.1-0.9-0.1c-0.3,0-0.6,0-0.8,0c-0.2,0-0.4,0-0.6,0c-0.2,0-0.4-0.1-0.6-0.1C90.5,41,90.2,41,89.9,41
		c-0.3,0-0.6-0.1-0.8-0.1c-0.8,0-1.7-0.1-2.5-0.2c-0.2-0.1-0.4-0.1-0.4-0.2c0-0.1,0-0.1,0.2-0.2c0.2-0.1,0.4-0.2,0.4-0.3
		c0-0.1-0.1-0.2-0.3-0.3c-0.1-0.1-0.1-0.1-0.1-0.2s0.1-0.1,0.3-0.2c0.7-0.2,0.5-0.3-0.6-0.6c-0.2-0.1-0.4-0.1-0.6-0.1
		c-0.2,0-0.5-0.1-0.7-0.1c-0.6-0.1-1.2-0.1-1.7-0.1c-0.3,0-0.6,0-1,0c-1.8-0.1-2.1-0.2-2.7-0.5l-0.4-0.2c-0.8-0.2-1.7-0.3-2.5-0.4
		s-1.8-0.1-2.6-0.2c-0.3,0-0.7,0-1-0.1c-1.2-0.1-2.3-0.2-3.5-0.3c-0.7,0-1.4-0.1-2.2-0.2c-0.7-0.1-1.4-0.2-1.9-0.4
		c-0.5-0.1-1-0.3-1.7-0.4c-0.8-0.1-0.8-0.2-0.4-0.3c0.4-0.1,1.1-0.2,1.8-0.3c0.2,0,0.4-0.1,0.4-0.1c0-0.1,0-0.1-0.2-0.2
		c-0.1-0.1-0.1-0.3-0.1-0.4c0,0,0-0.1-0.1-0.2c-0.1-0.1-0.2-0.1-0.4-0.2C64.4,34.1,64.2,34,64,34c-0.3,0-0.5-0.1-0.8-0.1
		c-1.2-0.1-2.3-0.3-3.5-0.4c-0.5,0-1-0.1-1.5-0.2c-1-0.2-2.1-0.3-3.1-0.4c-0.5,0-1-0.1-1.4-0.2c-1.2-0.3-2.3-0.6-3.3-0.9
		c-0.2-0.1-0.5-0.2-0.9-0.3c-0.4-0.1-0.8-0.2-1.2-0.2c-0.3,0-0.6-0.1-0.9-0.2c-0.2-0.1-0.2-0.3-0.1-0.4c0.2-0.1,0.5-0.2,0.9-0.2
		c0.4-0.1,0.9-0.1,1.2-0.2c0.5-0.1,1-0.1,1.6-0.1c0.7,0,1.3-0.1,1.5-0.3c-2-0.2-3.9-0.6-5.6-0.5l-1.3-0.2c0.1-0.1,0.1-0.2,0.1-0.2
		c0.3-0.1,0.4-0.3,0.3-0.5c-0.1-0.1-0.1-0.2,0-0.2c0.1-0.1,0.4-0.1,0.7-0.1c1.9-0.2,4-0.4,5.8-0.7c0.5-0.1,1.2-0.1,1.9-0.1
		c0.7,0,0.7-0.1-0.1-0.3c-0.4-0.1-0.9-0.2-1.4-0.2c-2,0-2.9,0.4-5.2,0.3l-1.1-0.5c-0.3,0-0.6,0-0.8,0l-3.9,0.2c-0.3,0-0.6,0-0.7,0.1
		c-0.2,0.1-0.2,0.1-0.1,0.2c0,0.1,0,0.2-0.2,0.3c-0.1,0.1,0,0.1,0.2,0.2c0.4,0.2-0.1,0.2-0.4,0.2c-0.1,0-0.2,0-0.3,0
		c-0.1,0-0.2,0-0.3,0c-0.1,0-0.2,0-0.3-0.1c-0.1,0-0.2,0-0.2-0.1c-0.6-0.2-1.1-0.3-1.7-0.5c0.4-0.2-0.1-0.5,0.6-0.6
		c0.1,0,0.1-0.1,0.1-0.1c0,0-0.1-0.1-0.2-0.1C38.1,26.1,38,26,38,25.9c0-0.1,0.2-0.2,0.5-0.2l0-0.1c-0.8-0.2-0.6-0.4-0.9-0.6
		l-0.8-0.1c-1.9-0.3-1.9-0.3-3.5-0.3c-0.3-0.1,0.1-0.2,0.4-0.2l2.6-0.1c1.7-0.1,3.5-0.2,5.4-0.2c1.9,0,4.1-0.2,6-0.2
		c0.1,0,0.2,0,0.2,0c0,0,0.1,0,0-0.1c-0.1,0-0.2-0.1-0.3-0.1c-0.1,0-0.3,0-0.4-0.1c-0.6-0.1-1.3-0.1-2-0.2l-1.3-0.1l-0.4-0.1
		c-0.3-0.1-0.4-0.2-0.8-0.3c-0.3,0-0.6-0.1-0.9-0.1c-0.3,0-0.6,0-0.8,0c-0.6,0-1.2,0.1-1.8,0.1c-0.6,0-0.9,0.1-1.4,0.1
		c-1.1,0-2.1,0-3.1,0.1c-0.8,0.1-1.6,0.2-2.3,0.3c-0.4,0-0.8,0.1-1.6,0c-0.4-0.1-0.7-0.1-0.9-0.2c-0.2-0.1-0.3-0.2-0.2-0.2
		c0,0,0.2-0.1,0.3-0.1c0.2,0,0.4,0,0.7,0c0.7,0,1.4,0,2.1-0.1c0.9-0.1,1.9-0.1,3.1-0.1c0.4,0,0.7,0,1-0.1c0.3,0,0.6-0.1,1,0
		c1.2,0.1,1.8,0,2.5-0.1c0.2,0,0.4-0.1,0.4-0.2s0-0.2-0.2-0.2c-0.3-0.2-0.7-0.3-1.2-0.5c-0.2-0.1-0.6-0.2-0.9-0.2
		c-0.4-0.1-0.8-0.1-1.1-0.2c-0.2-0.1-0.4-0.2-0.4-0.3c0-0.1,0.1-0.2,0.3-0.2c0.6-0.1,1.1-0.3,2.4-0.2c0.6,0,1.2,0,1.7,0
		c1.2,0,2.5,0,3.9,0.2c0.4,0,0.7,0.1,1,0.1c2.4,0.1,4.7,0.1,7,0.1c1.2,0,2.4,0,3.7,0c3,0.1,5.7,0,8.5,0.1c1.5,0,2.8,0,4-0.2
		c0.2,0,0.4-0.1,0.6-0.1c-0.7-0.1-1.6-0.2-2.4-0.3c-0.8-0.1-1.6-0.1-2.2-0.1c-0.4,0-0.8,0-1.4,0c-0.5,0-1.1-0.1-1.6-0.2l1.6,0
		c1,0,2.1,0,3.1-0.1c1.6-0.1,3.1-0.1,4.7-0.2c1.3,0,2.5-0.1,3.5-0.2c0.7-0.1,1.6-0.2,2.5-0.2c0.7,0,0.7,0,1.1-0.2
		c-0.3-0.1-0.8-0.1-1.2-0.1c-2.4-0.1-4.7-0.1-6.9,0c-1.1,0-2,0.1-2.8,0.2c-0.2,0-0.7,0-1.1,0c-1.2,0-2.4,0-3.6,0
		c-1.6,0.1-3.3,0-5.1,0c-0.3-0.1,0.1-0.1,0.1-0.1c1.4-0.1,2.8-0.1,4.3-0.2c0.4,0,0.8,0,1.3,0c1.7,0,3.1-0.1,4-0.3
		c0-0.1,0.7-0.1,0.9-0.1c0.1,0,0.2-0.1,0.3-0.2c-0.4-0.1-0.8-0.1-1.2-0.1c-1,0-1.9,0-2.8,0.1c-0.8,0-1.8,0.1-2.8,0
		c-0.7,0-1.4,0-2.1,0c-0.4,0-0.8,0-1.2-0.1c0.5-0.1,1.1-0.2,1.9-0.2c0.6-0.1,1.3-0.1,1.4-0.2c-0.3-0.1-0.6-0.1-0.8-0.1
		c-0.5,0-1,0-1.5,0c-1,0-2.1,0-3.2,0c-0.6,0-1.2,0-1.7,0c-1.2,0-2.4,0.1-3.5,0.1c-2.3,0-4.3,0.1-6.5,0.2c-0.5,0-0.9,0.1-1.5,0
		c-0.6-0.1-0.7-0.1-0.7-0.1c-0.2-0.1-0.2-0.1-0.2-0.2c0.1-0.1,0.4-0.1,0.7-0.1c1.9-0.1,3.8-0.2,5.5-0.3c0.8,0,1.4-0.1,2-0.2
		c0.4-0.1,0.9-0.1,1.5-0.1c0.8,0,1.7-0.1,2.6-0.1c0.4,0,0.8,0,1.1-0.1c0.3-0.1,0.5-0.1,0.5-0.2L55.9,16c-0.2,0-0.3,0-0.5,0l-9.3,0.2
		l-0.9,0c-1,0-1.3-0.1-2.2-0.4c2.2-0.1,3.9-0.3,5-0.7c-0.3,0-0.5-0.1-0.8-0.1c-1.7-0.1-3.4-0.1-4.9-0.1c-0.9,0-1.8,0-2.7,0
		c0.3-0.2,1.3-0.1,2-0.2c1.6-0.1,3-0.2,4.2-0.4c0.4-0.1,0.9-0.1,1.5-0.1c0.6,0,1.1,0,1.4-0.1c0.4-0.1,0.6-0.2,0.6-0.3
		c0.1-0.1,0.2-0.2,0.4-0.3c-0.3-0.1-0.8-0.3-1.4-0.4c-0.6-0.1-1.3-0.2-1.8-0.2c-1.2-0.1-2.5-0.1-3.8-0.3c-0.6-0.1-1.3-0.1-1.9-0.1
		c-0.5,0-1.1-0.1-1.7-0.1c-0.6-0.1-1.1-0.2-1.5-0.3c-0.5-0.1-1-0.3-1.5-0.4c-0.5-0.1-1.1-0.3-1.6-0.5c-0.5,0-1,0-1.5-0.1
		c-0.4,0-0.8,0-1.2-0.1c-0.4,0-0.9-0.1-1.2-0.2c0.2-0.1,0.5-0.2,0.7-0.2c-0.4-0.1-0.6-0.2-0.8-0.4c-0.1-0.1-0.2-0.2-0.1-0.3
		c0.1-0.1-0.3-0.2-0.5-0.4c-0.2-0.1-0.2-0.2-0.1-0.3c0.1-0.1,0.4-0.1,0.7-0.2c0.4,0,0.8-0.1,1.1-0.2c0.1,0,0.1-0.1,0.1-0.1
		c0,0-0.1-0.1-0.1-0.1c-0.1,0-0.2-0.1-0.4-0.1s-0.3-0.1-0.5-0.1c-0.6-0.1-1.1-0.1-1.7-0.1c-0.9,0-1.8,0-2.6-0.1
		c-0.9,0-1.9-0.1-3-0.2c-0.9-0.1-1.7-0.2-2.2-0.4c-0.4-0.2-1.2-0.2-1.7-0.4c0.3-0.1,0.9-0.2,1.6-0.3c0.5,0,0.9-0.1,1.2-0.1
		c0.3-0.1,0.5-0.2,0.5-0.3l-1.7-0.4c-1.3-0.2-2.1,0-3.5-0.1L19.1,6c0,0,0,0,0-0.1c-0.1-0.3-0.4-0.4-1.9-0.6l-0.9-0.1L15,5.2
		C14.8,5.1,14.7,5,14.6,5c-0.1-0.1-0.1-0.1,0-0.2c0.2-0.1,0.3-0.2,0.2-0.3c-0.1-0.1-0.1-0.1,0-0.2c0.1-0.1,0.3-0.1,0.6-0.1
		c0.2,0,0.3-0.1,0.4-0.1C16,4,16.2,3.9,16.5,3.9c0.3,0,0.7,0,1.1,0c1.2,0,2.4,0,3.4-0.1l-0.2,0c1.1,0.1,2.1,0.1,3,0c0.9,0,2.1,0,3,0
		c0.8,0,1.4-0.1,1.7-0.2c0.3-0.1,1.3-0.1,2-0.1c0.5,0,0.9,0,1.3,0c0.6,0,1.3,0,2,0.1c0.2,0,0.4,0,0.6,0c1.8,0,3.7,0.1,5.5,0.1
		c0.4,0,0.9,0,1.4,0.1c0.2,0,0.4,0,0.6,0c2.9,0,6.1,0.1,8.9,0c0.3,0,0.7,0,1.1,0c0.9,0,1.7,0,2.2-0.1c0.3,0,0.7-0.1,1.1-0.1
		c0.4,0,0.9,0,1.4,0.1c0.8,0.1,1.6,0.1,2.3,0c1.2,0,2.5-0.1,3.9,0c0.4,0,0.8,0,1.1,0c0.3,0,0.5-0.1,0.6-0.2c-0.3-0.1-0.7-0.1-1-0.1
		c-1.3,0-2.7-0.1-4-0.1c-1.2,0-2.3,0-3.4,0c-0.5,0-1.2,0-1.8-0.1C53.7,3,52.9,2.9,52.2,3c-0.5,0-1,0-1.6,0c-0.4,0-0.7-0.1-1-0.1
		c-0.1,0-0.3,0-0.4-0.1c-0.1,0-0.3,0-0.4,0c-0.1,0-0.3,0-0.4,0c-0.1,0-0.2,0-0.2,0c-0.5,0.2-1.6,0.1-2.6,0.1
		c-1.5-0.3-2.5-0.1-3.9-0.3c-0.1,0-0.2,0-0.3,0c-0.1,0-0.2,0-0.3,0c-2.6,0.1-5.7,0-8.5,0.1c-0.3,0-0.7,0-1,0
		c-2.4-0.2-4.6-0.3-6.4-0.2c-0.2,0-0.5,0-0.7,0c-1.2-0.1-2.3-0.1-3.3-0.1c-1.6,0-3,0-4.6,0c-1.1,0-2,0-2.8,0.1c0,0-0.5,0-0.9,0
		c-0.2-0.1-0.4-0.2-0.6-0.3c-0.2-0.1-0.5-0.2-0.9-0.3c-0.4-0.1-0.8-0.2-1.3-0.3C9.3,1.3,9.2,1.2,9.8,1.1c1.5-0.2,3.3-0.3,5.4-0.2
		c1.8,0,3.6,0,5.3,0c1,0,2.1,0,3.2,0.1c0.3,0,0.7,0,1,0.1c0.4,0,0.9,0.1,1.3,0.1c1.3,0,2.6,0,4.1,0.1c0.5,0,1.1,0,1.5,0
		c1.2,0,2.4,0,3.7,0.1c0.8,0,1.6,0,2.4,0c0.3,0,0.5,0,0.7,0c2.3,0.2,3.9,0.1,5.9,0.1c1,0,2,0,2.8,0c1.7,0,3.5,0,5.4,0.1
		c2.4,0.1,4.7,0,7,0.1c0.5,0,0.9,0,1.3,0c2.1-0.1,4.3,0,6.7,0c0.5,0,1,0,1.4,0c0.4,0,0.7-0.1,0.9-0.2c0.1-0.1,0-0.1-0.1-0.2
		c-0.3-0.1-0.6-0.2-1-0.3L55.7,0.6c-0.6,0-1.1,0-1.6,0c-1.5,0-3.1,0-4.7-0.1c-1.6,0-3.1,0-4.7,0c-0.5,0-0.9,0-1.4,0
		c-3.2-0.1-6.4-0.2-9.5-0.2c-1.3,0-2.7-0.1-4-0.1c-1.3,0-3.1,0-4.7,0l-4.8,0c-0.9,0-1.9,0-2.8,0c-1.1-0.4-1.5-0.5-3-0.7
		c-0.5-0.1-1-0.1-1.5-0.1c-1.5,0-3.3-0.1-4.7-0.1c-0.8,0-1.6,0-2.1,0.1c-0.4,0.1-1,0.1-1.5,0.2C3.3-0.8,3.1-1.1,4.3-1.2
		c0.3,0,0.8,0,1-0.1c0.1,0,0.3,0,0.5,0c0.2,0,0.5,0,0.7,0c0.8,0.1,1.5,0.1,2.1,0c0.6,0,1.3,0,2.1,0c0.6,0.1,1.1,0,1.6-0.1
		c0.5,0,0.9-0.1,1.7,0c0.1,0,0.3,0,0.4,0c0.1,0,0.2,0,0.3,0c0.8,0,1.8,0,2.9,0c1.6,0.1,3.2,0.1,4.5,0c0.8,0,1.5-0.1,2.1-0.3
		c0.2,0,0.4-0.1,0.7-0.1c1.4,0,2.9,0.1,4.4,0.3c0.6,0.1,1.1,0.1,1.7,0.1C32.1-1,33.2-1,34.2-1c1.5,0,3.1,0,4.7,0.1c1,0,2,0,2.9,0
		c0.9,0,2,0,3,0.1c1,0,2,0,2.7-0.1c0.2,0,0.4-0.1,0.5-0.2c-1.5-0.2-3.1-0.3-4.4-0.3c-0.5,0-0.9,0-1.4-0.1l0,0c-0.1,0-0.3,0-0.4,0
		c-0.2,0-0.4,0-0.5-0.1c0.1-0.1,0.1-0.2,0.2-0.3c1,0,2,0,2.9,0c0.8,0,1.9,0.2,2.6,0.1c1.3,0.1,2.2,0,3.4,0c1.2,0,2.5,0.2,3.7,0.2
		c1,0,2.1,0,3,0c0.3,0,0.7,0,1.1,0c0.6,0,1.1,0,1.6,0c0.4,0,0.8-0.1,0.9-0.2c-0.2-0.1-0.4-0.2-0.6-0.3C60.5-2,61.1-2,61.9-2L63-2
		c0.3,0,0.5,0,0.6-0.1c0.1,0,0.1-0.1,0-0.2c-2.1-0.4-2.2-0.4-3.8-0.2L57.8-2.5L57.8-2.5z M85.8-1.6l-0.2,0L85.8-1.6z M344,36.6
		L344,36.6L344,36.6l0.4,0l0,0L344,36.6z M293.6,9.8c-0.5-0.1-1-0.1-1.5-0.2c-0.1,0-0.3,0-0.4,0c-0.1,0-0.2,0-0.2,0
		c0,0.1,0.2,0.1,0.5,0.1c0.3,0,0.6,0.1,0.9,0.1c0.3,0,0.6,0,0.8,0l0.3,0L293.6,9.8z M40.7,26.1c0.3,0,0.6,0,0.9,0
		c1.3-0.1,2.5-0.1,3.7-0.2c1.6-0.1,3.5-0.2,5.5-0.2c0.8,0,1.5,0,1.9-0.1c0.3,0,0.6-0.1,1.1-0.1l5.4-0.1c0.3,0,0.6-0.1,0.9-0.1
		c-0.5-0.1-0.8-0.1-1-0.1c-0.4,0-0.7,0-1,0.1c-0.3,0.1-0.7,0.1-1.3,0.1c-0.6,0-1.1,0-1.6,0c-1,0-2,0-3,0c-0.4,0.2-1.5,0.1-2.5,0.1
		l-0.8,0c-2.5,0.1-4.8,0.2-7,0.4c-0.4,0-0.8,0.1-1.1,0.1c-0.1,0-0.1,0.1-0.1,0.2L40.7,26.1L40.7,26.1z M150.3,44.4
		c0.6,0,1.2,0,1.9,0.1c0.5,0,1,0.1,1.4,0.1c2.5,0,5.1,0.1,7.8,0.3c0.3,0,0.7,0,1,0l2.2,0c0.7,0,0.7,0,0.2-0.3
		c-0.4-0.1-0.8-0.1-1.3-0.2c-0.3,0-0.7-0.1-0.8,0c-0.6,0.1-1.7,0-2.6,0c-2.6-0.1-5.3-0.2-7.9-0.3c-0.6,0-1.1,0-1.6,0
		c-0.3,0-0.6,0-0.9,0c-0.1,0-0.1,0-0.2,0s-0.1,0-0.1,0c0,0,0,0,0,0.1c0,0,0.1,0,0.1,0.1c0.2,0.1,0.5,0.1,0.7,0.2L150.3,44.4z
		 M169.4,1.5l2.6,0c0.3,0,0.6,0,0.9,0c1.8,0.1,3.4,0,4.8,0c0.5,0,1.1,0,1.7,0c1.9,0.1,3.7,0.1,5.3,0c1.1,0,2,0,2.9-0.1
		c0.1,0,0.1,0,0.1-0.1c0,0,0-0.1,0-0.1c0,0,0,0-0.1-0.1c0,0-0.1,0-0.2-0.1c-0.1,0-0.2,0-0.3,0c-0.1,0-0.2,0-0.3,0
		c-1.1-0.1-2.2-0.1-3.2-0.1c-0.9,0-1.8,0-2.8,0c-0.9,0-1.6,0.1-2.8,0c-0.5,0-0.9,0-1.2,0c-0.6,0.1-1.5,0.1-2.4,0c-0.6,0-1.1,0-1.6,0
		c-1.2,0-2.3,0.1-3.5,0.1c-0.4,0-0.7,0-1.1,0L162.7,1c-1.3,0-2.7-0.1-4-0.1c-1.1,0-2.1,0-3,0c-0.9,0-2,0.1-3.1,0.1
		c-1.7,0-3.4,0-5.3,0c-1.2,0-2.4,0-3.6,0c-0.6,0-1.2,0-1.5,0.1c-0.2,0.1-0.7,0-1.1,0c-2.1-0.1-4.1-0.2-5.8-0.1c-0.2,0-0.5,0-0.7,0
		c-1.7,0-3.4,0-5,0c-0.4,0-0.8,0-1.2,0c0,0,0.2,0.1,0.3,0.1c0.2,0,0.4,0.1,0.6,0.1c1.5,0.1,3,0.2,4.3,0.2c2.2,0,4.6,0,7,0.1
		c1.9,0.1,3.6,0.1,5,0c1.1-0.1,2.6-0.1,4.1,0.1c0.7,0.1,1.3,0.1,1.8,0.1c0.5,0,1.1,0,1.7,0c1.3,0.1,2.6,0.1,3.8,0.1
		c1.2,0,2.3-0.1,3.5-0.1c1.2,0,3,0,4.5,0C166.5,1.5,167.9,1.5,169.4,1.5z M63.2-1.7c0.1,0.2,0.6,0.3,1.1,0.3c1.8,0.2,3.5,0.3,5,0.2
		c0.8-0.1,1.8,0,2.9,0.1C73.5-1,74.7-1,75.5-1c0.2,0,0.4,0,0.5-0.1c0,0,0.1-0.1,0.1-0.1c-0.1,0-0.2-0.1-0.3-0.1
		c-0.1,0-0.3,0-0.4-0.1l-5.9-0.2l-1,0C66.6-1.7,64.8-1.8,63.2-1.7z M74.8,1c0.9,0.3,0.9,0.3,1.4,0.3c2.3,0.3,4.5,0.4,6.5,0.4
		c0.4,0,0.8,0,1.1-0.1c0.1,0,0.2,0,0.3-0.1c0,0,0-0.1-0.2-0.1l-0.7-0.2c-1.3-0.1-2.6-0.2-3.9-0.2C77.7,1,76.4,1,74.9,1L74.8,1z
		 M150.2,43.1c0.9,0.4,0.9,0.4,2.3,0.5c1,0.1,2,0.1,2.9,0.1c1.1,0,2.2,0,3.4,0.1c0.3,0,0.5,0,0.6,0c0.1,0,0.2-0.1,0.1-0.1
		c-0.1-0.1-0.4-0.1-0.6-0.2c-0.3,0-0.6-0.1-0.9-0.1l-0.6,0c-0.7,0-1.5,0-2.2-0.1c-0.5,0-1,0-1.6,0c-0.6,0-1.1-0.1-1.7-0.2
		L150.2,43.1z M79.3-1.2c0.2,0.1,0.5,0.1,0.8,0.2c1.1,0.2,2.2,0.3,3.2,0.3c0.5,0,0.9,0,1.4,0c0.9,0.1,1.7,0.1,2.4,0.1
		c0,0,0.2,0,0.3,0l0.1-0.2C87.2-1,86.8-1,86.5-1c-1.2-0.1-2.5-0.1-3.7-0.2c-1.2-0.1-1.7-0.1-2.5-0.1C79.9-1.3,79.6-1.3,79.3-1.2z
		 M52.3,29.2l1.6,0.5c0.5,0,1,0.1,1.4,0c0.4,0,0.6-0.1,0.7-0.2c0.1,0,0.1-0.1,0-0.2c-0.1-0.1-0.3-0.1-0.6-0.2
		c-0.3-0.1-0.6-0.1-0.9-0.2c-0.3-0.1-0.7-0.1-1-0.1L52.3,29.2z M65.9,26.7c-1.1-0.1-2.1-0.1-3-0.1c-0.6,0-1.3,0-2.1,0
		c-1.5-0.2-2.9-0.2-4-0.1c0,0,0,0.1-0.2,0.1c-0.2,0,0.5,0.1,0.7,0.1c1.2,0,2.3,0.1,3.3,0.1c0.6,0,1.3,0,2,0c0.9,0,1.8,0.1,2.6,0
		C65.2,26.8,65.5,26.8,65.9,26.7L65.9,26.7z M180.1,0.6c-0.5-0.1-1.1-0.2-1.6-0.2c-0.6-0.1-1.1-0.1-1.6-0.1c-0.4,0-0.7,0-0.9,0.1
		c-0.2,0.1-0.2,0.1-0.2,0.2c0.4,0,0.9,0.1,1.2,0.1C178,0.7,178.8,0.7,180.1,0.6z M275.7,8.6c-0.4-0.1-0.9-0.1-1.3-0.2
		c-0.4,0-0.9,0-1.2,0c-0.2,0-0.1,0.1-0.1,0.1c0,0,0,0,0,0c0,0,0.1,0,0.1,0c0.1,0,0.1,0,0.2,0c0.1,0,0.1,0,0.2,0c0.4,0,0.9,0,1.2,0
		C275.2,8.7,275.5,8.6,275.7,8.6L275.7,8.6z M282.1,9.6c-0.1,0-0.2-0.1-0.4-0.1c-0.2,0-0.4-0.1-0.6-0.1c-0.4,0-0.7,0-1,0
		c-0.3,0-0.1,0.2,0.3,0.2c0.2,0,0.4,0.1,0.6,0.1c0.2,0,0.4,0,0.5,0c0.2,0,0.3,0,0.4,0C282,9.7,282,9.7,282.1,9.6L282.1,9.6z
		 M95.9-0.8c-1-0.2-1.7-0.1-2.5-0.2c-0.8-0.1-1-0.1-0.9,0c0.1,0.1,0.7,0.1,1,0.1c0.5,0.1,0.9,0.1,1.4,0.1
		C95.3-0.7,95.7-0.7,95.9-0.8z M295.1,26.3c-0.5,0-1-0.1-1.5-0.1c-0.1,0-0.1,0-0.1,0.1c0,0,0,0,0,0.1c0,0,0.3,0.1,0.5,0.1
		C294.7,26.6,294.8,26.5,295.1,26.3z M366.6,41.3c0.3,0.1,0.5,0.2,0.8,0.2c0.1,0,0.3,0,0.4,0c0.1,0,0.2,0,0.3,0
		c0.1,0,0.1-0.1,0.1-0.1c0,0-0.3-0.1-0.5-0.1C367.3,41.3,367,41.3,366.6,41.3z M79.7-1.7c-0.7-0.1-1.4-0.2-1.9-0.1
		C78.9-1.6,78.9-1.6,79.7-1.7z M91.4-0.6c-0.7-0.2-1.2-0.2-1.5-0.2c-0.1,0-0.1,0-0.1,0c0,0,0,0,0,0.1c0,0,0.1,0,0.2,0.1
		c0.1,0,0.2,0,0.3,0C90.7-0.6,91.1-0.6,91.4-0.6z M129.2-0.6c0,0,0-0.1-0.2-0.1c-0.1,0-0.1,0-0.2,0c-0.1,0-0.1,0-0.2,0
		c0,0,0,0,0,0.1L129.2-0.6z M155.4,45.6l-0.4,0l0.2,0l0.5,0L155.4,45.6z M303.9,9.2c-0.2,0-0.3,0-0.3,0c0,0-0.1,0-0.1,0c0,0,0,0,0,0
		c0,0,0.2,0,0.3,0L303.9,9.2z M279.3,9.5c-0.1,0-0.2,0-0.3,0l0,0L279.3,9.5L279.3,9.5z M65,17.5c-0.1,0-0.3,0-0.4,0l-0.2,0
		c0,0,0.2,0.1,0.3,0.1C64.9,17.5,64.9,17.5,65,17.5z"/>
</g>
</svg>
