<?xml version="1.0" encoding="utf-8"?>
<!-- Generator: Adobe Illustrator 25.4.1, SVG Export Plug-In . SVG Version: 6.00 Build 0)  -->
<svg version="1.1" id="Capa_1" xmlns="http://www.w3.org/2000/svg" xmlns:xlink="http://www.w3.org/1999/xlink" x="0px" y="0px"
	 viewBox="0 0 149 34" style="enable-background:new 0 0 149 34;" xml:space="preserve">
<style type="text/css">
	.st0{display:none;fill:#181E4B;}
	.st1{fill:#795DF3;}
	.st2{fill:#8CF9F5;}
	.st3{fill:#8DF9F5;}
</style>
<path class="st0" d="M13.9,24.5c0,2.6-1.3,4.4-4,4.4S6,27,6,24.5H0.9c0,5.5,3.7,8.8,9,8.8s9-3.3,9-8.8v-22h-5.1V24.5z M25.5,20.8
	c0,7.5,5.1,12.6,11.4,12.6c4,0,7-1.9,8.5-4V33h5.1V8.8h-5.1v3.5c-1.5-2-4.3-3.9-8.4-3.9C30.5,8.4,25.5,13.3,25.5,20.8z M45.3,20.9
	c0,5.2-3.6,8.2-7.3,8.2c-3.7,0-7.3-3-7.3-8.3s3.6-8.1,7.3-8.1C41.7,12.7,45.3,15.7,45.3,20.9z M55.3,20.8c0,7.5,5.1,12.6,11.4,12.6
	c4,0,6.9-1.8,8.4-4V33h5.1V0.4h-5.1v11.7c-1.8-2.3-5.2-3.8-8.4-3.8C60.3,8.4,55.3,13.3,55.3,20.8z M75.1,20.9c0,5.2-3.6,8.2-7.3,8.2
	c-3.7,0-7.3-3-7.3-8.3s3.6-8.1,7.3-8.1C71.6,12.7,75.1,15.7,75.1,20.9z M109.9,20.9c0-7.6-5.5-12.5-12.4-12.5
	c-6.9,0-12.4,4.9-12.4,12.5s5.2,12.5,12.1,12.5C104.2,33.4,109.9,28.5,109.9,20.9z M90.3,20.9c0-5.5,3.4-8.1,7.2-8.1
	c3.7,0,7.3,2.6,7.3,8.1S101,29,97.3,29C93.5,29,90.3,26.4,90.3,20.9z M137.9,20.9c0-7.6-5.5-12.5-12.4-12.5
	c-6.9,0-12.4,4.9-12.4,12.5s5.2,12.5,12.1,12.5C132.3,33.4,137.9,28.5,137.9,20.9z M118.3,20.9c0-5.5,3.4-8.1,7.2-8.1
	c3.7,0,7.3,2.6,7.3,8.1s-3.7,8.2-7.4,8.2C121.6,29,118.3,26.4,118.3,20.9z M148.1,30.1c0-1.8-1.4-3.2-3.2-3.2
	c-1.8,0-3.2,1.4-3.2,3.2c0,1.8,1.4,3.2,3.2,3.2C146.7,33.3,148.1,31.9,148.1,30.1z"/>
<g>
	<path class="st1" d="M64.8,18.4c0-3.6,0-7.2,0-10.8c0-0.8,0.2-1.1,1.1-1.1c4.8,0,9.6,0,14.4,0c0.8,0,1.2,0.3,1.2,1.1
		c0,1.1,0,2.1,0,3.2c0,1-0.2,1.2-1.2,1.2c-2.8,0-5.6,0-8.4,0c-0.7,0-0.9,0.2-0.9,0.9c0.1,1,0.1,2.1,0,3.2c0,0.7,0.2,0.8,0.9,0.8
		c1.8,0,3.6,0,5.5,0c1.5,0,1.5,0,1.5,1.4c0,0.9,0,1.8,0,2.7c0,1-0.1,1.1-1.2,1.2c-1.9,0-3.8,0-5.7,0c-0.8,0-0.9,0.2-0.9,0.9
		c0,2.1,0,4.2,0,6.2c0,0.9-0.4,1.1-1.2,1.1c-1.3,0-2.6,0-4,0c-0.8,0-1.1-0.3-1.1-1.1C64.8,25.7,64.8,22.1,64.8,18.4z"/>
	<path class="st1" d="M135.5,22.6c0-2,0-4.1,0-6.1c0-0.8-0.3-1.1-1-1c-0.2,0-0.4,0-0.6,0c-0.8,0-1.2-0.4-1.2-1.3c0-1,0-2,0-3.1
		c0-0.9,0.3-1.2,1.2-1.2c1.6-0.1,1.7-0.1,1.6-1.7c-0.1-1.1,0.3-1.8,1.4-2.2c1.1-0.4,2.1-1,3.2-1.5c1-0.5,1.7-0.1,1.7,1
		c0,1.2,0,2.4,0,3.6c0,0.6,0.1,0.9,0.8,0.8c0.5-0.1,0.9,0,1.4,0c0.8,0,1.2,0.4,1.2,1.1c0,1.1,0,2.2,0,3.2c0,0.7-0.4,1.1-1.1,1.2
		c-0.1,0-0.1,0-0.2,0c-0.6,0-1.5-0.3-1.9,0.1c-0.4,0.4-0.1,1.3-0.1,1.9c0,3.8,0,7.5,0,11.3c0,1.1-0.4,1.5-1.5,1.5
		c-1.1,0-2.1,0-3.2,0c-1.2,0-1.5-0.3-1.5-1.5C135.5,26.8,135.5,24.7,135.5,22.6z"/>
	<path class="st1" d="M109.8,17c-1.4-5.1-6.5-8.3-11.6-7.2c-5.2,1.1-8.5,5.9-8,11.3c0,0.6,0.3,0.8,0.9,0.8c2.9,0,5.8,0,8.6,0
		c2.8,0,5.7,0,8.5,0c1.2,0,1.7-0.4,1.8-1.4C110.2,19.3,110.1,18.2,109.8,17z M96.8,17.4c-0.7,0-0.4-0.4-0.2-0.6
		c0.9-1.4,2-2.3,3.8-2.3c1.7,0,3,1,3.9,2.9H96.8z"/>
	<path class="st1" d="M121.5,9.6c-6,0-10.8,5.4-10.1,11.4c0.1,0.8,0.3,0.9,1.1,0.9c2.8,0,5.6,0,8.5,0h3.8c1.7,0,3.4,0,5,0
		c0.8,0,1.4-0.3,1.5-1.2C132,14.9,127.3,9.6,121.5,9.6z M125,17.4c-2.4,0-4.9,0-7.5,0c0.9-1.6,2-2.8,3.8-2.9c1.8-0.1,3.1,0.8,4,2.3
		C125.5,17.2,125.5,17.4,125,17.4z"/>
	<path class="st1" d="M88.8,17.1c0,3.9,0,7.8,0,11.7c0,1.4-0.3,1.6-1.7,1.6c-1.1,0-2.2,0-3.3,0c-0.8,0-1.1-0.4-1.2-1.1
		c0-0.2,0-0.4,0-0.6c0-7.7,0-15.3,0-23c0-1.7,0.2-1.9,1.9-1.9c0.9,0,1.8,0,2.7,0c1.1,0,1.5,0.4,1.5,1.5
		C88.8,9.2,88.8,13.1,88.8,17.1z"/>
	<path class="st2" d="M16.1,6.2c-0.2-2.8,0.7-4.6,2.8-5.3c2.9-1,5.7,1,5.8,4.1c0.1,3.8,2.5,6.8,6.2,7.6c0.8,0.2,1.6,0,2.4,0.2
		c2.2,0.5,3.7,2.3,3.6,4.4c-0.1,2.2-1.9,4.1-4.2,4.1c-2.4,0.1-4.4-1.8-4.4-4.3c0-3-1.3-5.3-3.9-6.8c-1.6-1-3.3-1.1-5.1-1
		c-1.2-0.3-2.2-1-2.9-2.1C16.2,6.9,16.1,6.6,16.1,6.2z"/>
	<path class="st2" d="M12.6,16.2c-0.3,4.5,2.2,7.5,5.7,8.5c0.8,0.2,1.5,0.3,2.3,0.3c2.3,0,4.2,2,4.2,4.3c0,2.3-2,4.3-4.4,4.3
		c-2.3,0-4.2-1.9-4.3-4.2c-0.1-4.1-2.5-7-6.4-7.9c-0.7-0.2-1.5-0.1-2.3-0.2c-2.2-0.4-3.6-2.1-3.5-4.6c0-1.9,1.6-3.6,3.7-3.8
		c0.5-0.1,1-0.2,1.5-0.1C11,13.1,12.2,14.2,12.6,16.2z"/>
	<path class="st1" d="M40.4,17.6c0.1-4.7-3-8.1-7.7-8.3c-1.8-0.1-3.3-0.8-4.1-2.5c-0.7-1.5-0.6-3,0.4-4.4c1.1-1.5,3-2.1,4.8-1.6
		c1.8,0.6,3,2.2,3,4.2c0.1,3.8,2.4,6.7,6.1,7.5c0.5,0.1,1,0.1,1.6,0.2c2.5,0.1,4.3,1.7,4.5,4.2c0.2,2.2-1.5,4.1-3.9,4.4
		c-2,0.2-3.6-0.4-4.5-2.3C40.5,18.6,40.3,18.1,40.4,17.6z"/>
	<path class="st1" d="M36.9,28.8c0,2.3-1.2,4-3.2,4.5c-1.9,0.5-3.9-0.3-4.9-2c-0.6-1-0.5-2-0.6-3.1c-0.5-4-3.5-6.8-7.5-6.9
		c-4.2-0.1-5.5-4.1-4-6.6c1-1.7,3-2.5,4.9-1.9c1.9,0.5,3.3,2.2,3.2,4.2c-0.1,3.2,2.2,6.8,6.2,7.6c0.4,0.1,0.8,0.1,1.1,0.1
		c0.2,0.1,0.4,0.1,0.5,0C34.8,24.5,37,26.5,36.9,28.8z"/>
	<path class="st1" d="M62,21.2c0,2.6,0,5.2,0,7.8c0,1-0.4,1.4-1.4,1.4c-1.1,0-2.3,0-3.4,0c-0.9,0-1.3-0.3-1.3-1.2
		c0-5.3,0-10.6,0-15.9c0-1,0.4-1.4,1.5-1.4c1,0,2.1,0,3.1,0c1.1,0,1.6,0.5,1.6,1.6C62,16.1,62,18.7,62,21.2z"/>
	<path class="st1" d="M114,26.8c0.9-0.2,1.6-0.5,2.3-1c1.3-0.7,2.6-0.9,4.1-0.6c2,0.4,3.8,0,5.4-1.2c0.8-0.6,1.1-0.6,1.8,0.1
		c0.6,0.6,1.1,1.2,1.6,1.8c0.4,0.5,0.4,1-0.1,1.6C125.3,31.6,117.7,31.3,114,26.8z"/>
	<path class="st1" d="M92.8,26.8c0.9-0.2,1.7-0.6,2.5-1c1.3-0.7,2.6-0.8,4-0.5c1.9,0.4,3.7-0.1,5.2-1.2c0.9-0.7,1.2-0.7,1.9,0.1
		c0.5,0.6,1,1.1,1.5,1.7c0.5,0.6,0.5,1.1-0.1,1.7C103.8,31.6,96.6,31.3,92.8,26.8z"/>
	<path class="st2" d="M58.8,9.4c-0.6,0-1.1,0-1.7,0c-0.9,0.1-1.3-0.4-1.3-1.2c-0.1-1.1,0-2.2,0-3.3c0-0.8,0.5-1.1,1.3-1.1
		c1.2,0,2.4,0,3.5,0c1,0,1.3,0.4,1.3,1.3c0,1,0,2,0,3c0,0.9-0.4,1.3-1.3,1.3C60.1,9.4,59.4,9.4,58.8,9.4z"/>
	<path class="st3" d="M36.9,28.8c-0.3-1.9-1.3-3.2-3.1-3.7c-0.5-0.2-1.1-0.1-1.7-0.2c1.9,0,3.7-0.3,5.3-1.5c1.8-1.4,2.8-3.1,3-5.4
		c0-0.1,0.1-0.2,0.1-0.3c0.6,2.6,1.9,3.6,4.8,3.7c-0.9,0.2-1.8,0.1-2.8,0.4C39.2,22.7,37.1,25.3,36.9,28.8z"/>
	<path class="st1" d="M12.6,16.2c-0.6-1.7-1.8-2.8-3.5-3.5c3.1-0.3,5.8-2.5,6.7-5.6c0.1-0.3,0.1-0.7,0.3-1c0.6,1.5,1.8,2.4,3.2,3.2
		C15.6,10,13.1,12.5,12.6,16.2z"/>
</g>
</svg>
